<?xml version="1.0" encoding="UTF-8" standalone="no"?>
<svg
   xmlns:dc="http://purl.org/dc/elements/1.1/"
   xmlns:cc="http://creativecommons.org/ns#"
   xmlns:rdf="http://www.w3.org/1999/02/22-rdf-syntax-ns#"
   xmlns:svg="http://www.w3.org/2000/svg"
   xmlns="http://www.w3.org/2000/svg"
   xmlns:xlink="http://www.w3.org/1999/xlink"
   xmlns:sodipodi="http://sodipodi.sourceforge.net/DTD/sodipodi-0.dtd"
   xmlns:inkscape="http://www.inkscape.org/namespaces/inkscape"
   width="64"
   height="64"
   version="1.1"
   viewBox="0 0 16.933 16.933"
   id="svg4304"
   sodipodi:docname="application-x-krita.svg"
   inkscape:version="1.0 (1.0+r73+1)">
  <title
     id="title27557">Krita</title>
  <metadata
     id="metadata4308">
    <rdf:RDF>
      <cc:Work
         rdf:about="">
        <dc:format>image/svg+xml</dc:format>
        <dc:type
           rdf:resource="http://purl.org/dc/dcmitype/StillImage" />
        <dc:title>Krita</dc:title>
        <dc:creator>
          <cc:Agent>
            <dc:title>Mohammad Mahdi Baghbani Pourvahid</dc:title>
          </cc:Agent>
        </dc:creator>
        <dc:publisher>
          <cc:Agent>
            <dc:title>Azadeh Afzar</dc:title>
          </cc:Agent>
        </dc:publisher>
      </cc:Work>
    </rdf:RDF>
  </metadata>
  <sodipodi:namedview
     inkscape:document-rotation="0"
     pagecolor="#ffffff"
     bordercolor="#666666"
     borderopacity="1"
     objecttolerance="10"
     gridtolerance="10"
     guidetolerance="10"
     inkscape:pageopacity="0"
     inkscape:pageshadow="2"
     inkscape:window-width="1366"
     inkscape:window-height="708"
     id="namedview4306"
     showgrid="false"
     inkscape:zoom="2.9002427"
     inkscape:cx="-57.674119"
     inkscape:cy="37.062381"
     inkscape:window-x="0"
     inkscape:window-y="28"
     inkscape:window-maximized="1"
     inkscape:current-layer="svg4304" />
  <defs
     id="defs4222">
    <linearGradient
       id="b"
       x1="-666.12"
       x2="-553.27"
       y1="413.04"
       y2="525.91"
       gradientTransform="matrix(.99884 0 0 .9987 689.01 -388.84)"
       gradientUnits="userSpaceOnUse"
       xlink:href="#a" />
    <linearGradient
       id="a">
      <stop
         stop-color="#3b3b3b"
         offset="0"
         id="stop4171" />
      <stop
         stop-color="#fff"
         offset="1"
         id="stop4173" />
    </linearGradient>
    <linearGradient
       id="c"
       x1="-553.27"
       x2="-666.12"
       y1="525.91"
       y2="413.05"
       gradientTransform="matrix(.99884 0 0 .9987 689.01 -388.84)"
       gradientUnits="userSpaceOnUse"
       xlink:href="#a" />
    <linearGradient
       id="linearGradient6191"
       x1="7.9373"
       x2="7.9373"
       y1="15.346"
       y2="16.933"
       gradientUnits="userSpaceOnUse"
       xlink:href="#linearGradient6067" />
    <linearGradient
       id="linearGradient6067">
      <stop
         offset="0"
         id="stop4178" />
      <stop
         stop-opacity="0"
         offset="1"
         id="stop4180" />
    </linearGradient>
    <radialGradient
       id="radialGradient6247"
       cx="35"
       cy="4"
       r="3.7275"
       gradientTransform="matrix(1.696 0 0 1.0731 -24.361 -.29238)"
       gradientUnits="userSpaceOnUse"
       xlink:href="#linearGradient6067" />
    <linearGradient
       id="linearGradient6263"
       x1="43"
       x2="46.748"
       y1="12"
       y2="8.2517"
       gradientUnits="userSpaceOnUse"
       xlink:href="#linearGradient6067" />
    <radialGradient
       id="radialGradient6255"
       cx="52"
       cy="22"
       r="5.2061"
       gradientTransform="matrix(.96042 0 0 1.3331 2.0581 -7.3283)"
       gradientUnits="userSpaceOnUse"
       xlink:href="#linearGradient6067" />
    <linearGradient
       id="linearGradient6239"
       x1="5.8207"
       x2="5.8207"
       y1="1.0583"
       gradientUnits="userSpaceOnUse"
       xlink:href="#linearGradient6067" />
    <radialGradient
       id="radialGradient6231"
       cx="3.1749"
       cy="1.3229"
       r=".79373"
       gradientTransform="matrix(-2.1078e-8 -1.3333 1.6667 -2.6348e-8 .97012 5.2916)"
       gradientUnits="userSpaceOnUse"
       xlink:href="#linearGradient6067" />
    <linearGradient
       id="linearGradient6215"
       x1="13.758"
       x2="15.081"
       y1="10.583"
       y2="10.583"
       gradientUnits="userSpaceOnUse"
       xlink:href="#linearGradient6067" />
    <linearGradient
       id="linearGradient6223"
       x1="3.1749"
       x2="1.852"
       y1="8.4665"
       y2="8.4665"
       gradientUnits="userSpaceOnUse"
       xlink:href="#linearGradient6067" />
    <radialGradient
       id="radialGradient6207"
       cx="13.758"
       cy="15.346"
       r=".79373"
       gradientTransform="matrix(5.1718e-7 2 -1.6667 4.3098e-7 39.334 -12.171)"
       gradientUnits="userSpaceOnUse"
       xlink:href="#linearGradient6067" />
    <radialGradient
       id="radialGradient6199"
       cx="3.1749"
       cy="15.346"
       r=".79373"
       gradientTransform="matrix(-1.6667 -1.37e-6 1.644e-6 -2 8.4665 46.037)"
       gradientUnits="userSpaceOnUse"
       xlink:href="#linearGradient6067" />
    <linearGradient
       id="linearGradient6315"
       x1="7.9373"
       x2="7.9373"
       y1="15.346"
       y2="16.668"
       gradientUnits="userSpaceOnUse"
       xlink:href="#linearGradient6067" />
    <radialGradient
       id="radialGradient6331"
       cx="35"
       cy="4"
       r="3.7275"
       gradientTransform="matrix(1.6115 -1.9122e-7 9.5496e-8 .80482 -21.403 .78072)"
       gradientUnits="userSpaceOnUse"
       xlink:href="#linearGradient6067" />
    <linearGradient
       id="linearGradient6333"
       x1="43"
       x2="46.004"
       y1="12"
       y2="8.9965"
       gradientUnits="userSpaceOnUse"
       xlink:href="#linearGradient6067" />
    <radialGradient
       id="radialGradient6321"
       cx="52"
       cy="22"
       r="5.2061"
       gradientTransform="matrix(.76834 -9.6042e-8 1.534e-7 1.2272 12.047 -4.9986)"
       gradientUnits="userSpaceOnUse"
       xlink:href="#linearGradient6067" />
    <linearGradient
       id="linearGradient6335"
       x1="5.8207"
       x2="5.8207"
       y1="1.0583"
       y2=".26458"
       gradientUnits="userSpaceOnUse"
       xlink:href="#linearGradient6067" />
    <radialGradient
       id="radialGradient6337"
       cx="3.1749"
       cy="1.3229"
       r=".79373"
       gradientTransform="matrix(-7.442e-8 -1 1.3333 -9.9226e-8 1.4111 4.2333)"
       gradientUnits="userSpaceOnUse"
       xlink:href="#linearGradient6067" />
    <linearGradient
       id="linearGradient6319"
       x1="13.758"
       x2="14.816"
       y1="10.583"
       y2="10.583"
       gradientUnits="userSpaceOnUse"
       xlink:href="#linearGradient6067" />
    <linearGradient
       id="linearGradient6309"
       x1="3.1749"
       x2="2.1166"
       y1="8.4665"
       y2="8.4665"
       gradientUnits="userSpaceOnUse"
       xlink:href="#linearGradient6067" />
    <radialGradient
       id="radialGradient6317"
       cx="13.758"
       cy="15.346"
       r=".79373"
       gradientTransform="matrix(0 1.6667 -1.3333 0 34.219 -7.5846)"
       gradientUnits="userSpaceOnUse"
       xlink:href="#linearGradient6067" />
    <radialGradient
       id="radialGradient6311"
       cx="3.1749"
       cy="15.346"
       r=".79373"
       gradientTransform="matrix(-1.3333 0 0 -1.6667 7.4082 40.921)"
       gradientUnits="userSpaceOnUse"
       xlink:href="#linearGradient6067" />
    <linearGradient
       id="linearGradient4553"
       x1="45"
       x2="11"
       y1="9"
       y2="60"
       gradientTransform="matrix(.26458 0 0 .26458 .046771 -.26458)"
       gradientUnits="userSpaceOnUse">
      <stop
         stop-color="#ededed"
         offset="0"
         id="stop4202" />
      <stop
         stop-color="#fcfcfc"
         offset="1"
         id="stop4204" />
    </linearGradient>
    <radialGradient
       id="radialGradient6129"
       cx="40"
       cy="12"
       r="8"
       gradientTransform="matrix(.39687 0 0 -.52916 -3.6573 10.583)"
       gradientUnits="userSpaceOnUse"
       xlink:href="#linearGradient6067" />
    <radialGradient
       id="radialGradient6017"
       cx="10.583"
       cy="4.2333"
       r="2.1166"
       gradientTransform="matrix(-2 3.1236e-7 -3.1236e-7 -2 31.796 12.7)"
       gradientUnits="userSpaceOnUse"
       xlink:href="#linearGradient6067" />
    <radialGradient
       id="radialGradient6042"
       cx="40"
       cy="12"
       r="8"
       gradientTransform="matrix(0 -.39687 .52916 0 4.28 18.52)"
       gradientUnits="userSpaceOnUse"
       xlink:href="#linearGradient6067" />
    <linearGradient
       id="linearGradient6093"
       x1="10.583"
       x2="6.3499"
       y1="3.1749"
       y2="3.1749"
       gradientTransform="matrix(1 0 0 .66667 .046771 1.4111)"
       gradientUnits="userSpaceOnUse"
       xlink:href="#linearGradient6067" />
    <linearGradient
       id="linearGradient6073"
       x1="10.583"
       x2="8.7311"
       y1="3.0426"
       y2="3.0426"
       gradientTransform="matrix(1 0 0 .66667 .046771 1.4111)"
       gradientUnits="userSpaceOnUse"
       xlink:href="#linearGradient6067" />
    <radialGradient
       id="radialGradient6083"
       cx="10.583"
       cy="4.2333"
       r="2.1166"
       gradientTransform="matrix(-.875 -1.6564e-7 1.6631e-7 -.87849 19.89 7.9521)"
       gradientUnits="userSpaceOnUse"
       xlink:href="#linearGradient6067" />
    <radialGradient
       id="radialGradient6089"
       cx="40"
       cy="12"
       r="8"
       gradientTransform="matrix(0 -.34601 .23278 0 7.8365 16.486)"
       gradientUnits="userSpaceOnUse"
       xlink:href="#linearGradient6067" />
    <linearGradient
       id="linearGradient6121"
       x1="10.583"
       x2="6.3499"
       y1="3.1749"
       y2="3.1749"
       gradientTransform="matrix(1 0 0 .66667 -14.816 9.3952)"
       gradientUnits="userSpaceOnUse"
       xlink:href="#linearGradient6067" />
    <linearGradient
       id="linearGradient6123"
       x1="10.583"
       x2="8.7237"
       y1="3.0426"
       y2="3.0426"
       gradientTransform="matrix(1 0 0 .66667 -14.816 9.3952)"
       gradientUnits="userSpaceOnUse"
       xlink:href="#linearGradient6067" />
    <radialGradient
       id="radialGradient6131"
       cx="40"
       cy="12"
       r="8"
       gradientTransform="matrix(.3793 0 0 -.23243 -2.9547 7.0224)"
       gradientUnits="userSpaceOnUse"
       xlink:href="#linearGradient6067" />
    <linearGradient
       id="linearGradient4561"
       x1="40"
       x2="46"
       y1="17"
       y2="11"
       gradientTransform="matrix(.26458 0 0 .26458 .046771 -.26458)"
       gradientUnits="userSpaceOnUse">
      <stop
         stop-color="#fefefe"
         offset="0"
         id="stop4217" />
      <stop
         stop-color="#e9e9e9"
         offset="1"
         id="stop4219" />
    </linearGradient>
    <linearGradient
       inkscape:collect="always"
       xlink:href="#linearGradient1664"
       id="linearGradient27502"
       gradientUnits="userSpaceOnUse"
       x1="178.16689"
       y1="137.53882"
       x2="-13.92912"
       y2="128.91682" />
    <linearGradient
       y2="128.91682"
       y1="137.53882"
       x2="-13.92912"
       x1="178.16689"
       gradientUnits="userSpaceOnUse"
       id="linearGradient1664">
      <stop
         id="stop23"
         stop-color="#5995e8"
         offset="0" />
      <stop
         id="stop25"
         stop-opacity=".01"
         stop-color="#63a0e6"
         offset="1" />
    </linearGradient>
  </defs>
  <g
     id="g27621">
    <g
       id="g4296"
       transform="translate(-.052351)">
      <g
         id="g4244"
         opacity=".1"
         transform="translate(.046771)">
        <rect
           id="rect4224"
           opacity="1"
           fill="url(#linearGradient6191)"
           height="1.5875"
           width="10.583"
           y="15.346"
           x="3.1749" />
        <path
           id="path4226"
           opacity="1"
           fill="url(#radialGradient6247)"
           d="m35 0 1e-6 7 7-7z"
           transform="scale(.26458)" />
        <path
           id="path4228"
           opacity="1"
           fill="url(#linearGradient6263)"
           d="m42 0-7 7 14 15 9-9 2e-6 -9.4551-3.5449-3.5449z"
           transform="scale(.26458)" />
        <path
           id="path4230"
           opacity="1"
           fill="url(#radialGradient6255)"
           d="m58 13-9 9h9z"
           transform="scale(.26458)" />
        <rect
           id="rect4232"
           opacity="1"
           fill="url(#linearGradient6239)"
           height="1.0583"
           width="6.0853"
           x="3.1749" />
        <rect
           id="rect4234"
           opacity="1"
           fill="url(#radialGradient6231)"
           height="1.0583"
           width="1.5875"
           x="1.5875" />
        <rect
           id="rect4236"
           opacity="1"
           fill="url(#linearGradient6215)"
           height="9.5248"
           width="1.5875"
           y="5.8207"
           x="13.758" />
        <rect
           id="rect4238"
           opacity="1"
           fill="url(#linearGradient6223)"
           height="14.287"
           width="1.5875"
           y="1.0583"
           x="1.5875" />
        <rect
           id="rect4240"
           opacity="1"
           fill="url(#radialGradient6207)"
           height="1.5875"
           width="1.5875"
           y="15.346"
           x="13.758" />
        <rect
           id="rect4242"
           opacity="1"
           fill="url(#radialGradient6199)"
           height="1.5875"
           width="1.5875"
           y="15.346"
           x="1.5875" />
      </g>
      <g
         id="g4266"
         opacity=".2"
         transform="translate(.046771)">
        <rect
           id="rect4246"
           opacity="1"
           fill="url(#linearGradient6315)"
           height="1.5875"
           width="10.583"
           y="15.346"
           x="3.1749" />
        <path
           id="path4248"
           opacity="1"
           fill="url(#radialGradient6331)"
           d="m35 0 1e-6 7 7-7z"
           transform="scale(.26458)" />
        <path
           id="path4250"
           opacity="1"
           fill="url(#linearGradient6333)"
           d="m42 0-7 7 14 15 9-9 2e-6 -9.4551-3.5449-3.5449z"
           transform="scale(.26458)" />
        <path
           id="path4252"
           opacity="1"
           fill="url(#radialGradient6321)"
           d="m58 13-9 9h9z"
           transform="scale(.26458)" />
        <rect
           id="rect4254"
           opacity="1"
           fill="url(#linearGradient6335)"
           height="1.0583"
           width="6.0853"
           x="3.1749" />
        <rect
           id="rect4256"
           opacity="1"
           fill="url(#radialGradient6337)"
           ry="0"
           height="1.0583"
           width="1.5875"
           x="1.5875" />
        <rect
           id="rect4258"
           opacity="1"
           fill="url(#linearGradient6319)"
           height="9.5248"
           width="1.5875"
           y="5.8207"
           x="13.758" />
        <rect
           id="rect4260"
           opacity="1"
           fill="url(#linearGradient6309)"
           height="14.287"
           width="1.5875"
           y="1.0583"
           x="1.5875" />
        <rect
           id="rect4262"
           opacity="1"
           fill="url(#radialGradient6317)"
           height="1.5875"
           width="1.5875"
           y="15.346"
           x="13.758" />
        <rect
           id="rect4264"
           opacity="1"
           fill="url(#radialGradient6311)"
           height="1.5875"
           width="1.5875"
           y="15.346"
           x="1.5875" />
      </g>
      <path
         id="path4268"
         stroke-width=".26458"
         fill="url(#linearGradient4553)"
         d="m2.9572 0.26458c-0.29316 0-0.52916 0.23601-0.52916 0.52916v14.816c0 0.29316 0.23601 0.52916 0.52916 0.52916h11.112c0.29316 0 0.52916-0.23601 0.52916-0.52916v-10.319c0-0.26458-0.16113-0.69029-0.52916-1.0583l-3.4395-3.4395c-0.35403-0.44799-0.79374-0.52916-1.0583-0.52916z" />
      <path
         id="path4270"
         opacity=".05"
         fill="url(#radialGradient6129)"
         d="m12.217 4.2332v4.2332h2.3812v-3.1749c0-0.034876-0.0069-0.079523-0.01034-0.11989-0.03935-0.26272-0.20199-0.6216-0.51882-0.93843z" />
      <rect
         id="rect4272"
         fill="none"
         height="6.6348"
         width="6.6358"
         y="-.54211"
         x="8.7676" />
      <g
         id="g4292">
        <rect
           id="rect4274"
           opacity=".05"
           fill="url(#radialGradient6017)"
           ry="0"
           height="4.2333"
           width="4.2333"
           y="4.2333"
           x="6.3966" />
        <path
           id="path4276"
           opacity=".05"
           fill="url(#radialGradient6042)"
           d="m6.3966 0.26458v2.3812h4.2332v-1.852c-0.35403-0.44799-0.79373-0.52916-1.0583-0.52916z" />
        <rect
           id="rect4278"
           opacity=".05"
           fill="url(#linearGradient6093)"
           ry="0"
           height="1.5875"
           width="4.2333"
           y="2.6458"
           x="6.3966" />
        <rect
           id="rect4280"
           opacity=".2"
           fill="url(#linearGradient6073)"
           ry="0"
           height="1.5875"
           width="2.9104"
           y="2.6458"
           x="7.7195" />
        <rect
           id="rect4282"
           opacity=".2"
           fill="url(#radialGradient6083)"
           ry="0"
           height="2.9104"
           width="2.9104"
           y="4.2333"
           x="7.7195" />
        <path
           id="path4284"
           opacity=".2"
           fill="url(#radialGradient6089)"
           d="m7.7195 0.26458v2.3812h2.9104v-1.852c-0.14016-0.17736-0.29358-0.29558-0.44441-0.37568l-0.6139-0.15348z" />
        <rect
           id="rect4286"
           opacity=".05"
           fill="url(#linearGradient6121)"
           ry="0"
           height="1.5875"
           width="4.2333"
           y="10.63"
           x="-8.4665"
           transform="rotate(-90)" />
        <rect
           id="rect4288"
           opacity=".2"
           fill="url(#linearGradient6123)"
           ry="0"
           height="1.5875"
           width="2.9104"
           y="10.63"
           x="-7.1436"
           transform="rotate(-90)" />
        <path
           id="path4290"
           opacity=".2"
           fill="url(#radialGradient6131)"
           d="m12.217 4.2332v2.9104h2.3812v-1.852l-0.11627-0.4656c-0.085847-0.19266-0.2205-0.40033-0.41289-0.59272z" />
      </g>
      <path
         id="path4294"
         fill="url(#linearGradient4561)"
         d="m10.101 0.37542v3.8561c0 0.29315 0.23601 0.52917 0.52917 0.52917h3.822c-0.08627-0.1743-0.21103-0.35779-0.3824-0.52917l-3.4396-3.4396c-0.16657-0.21078-0.35183-0.33839-0.52917-0.41652z" />
    </g>
    <g
       transform="matrix(0.02801601,0,0,0.02801601,6.4620842,7.6401755)"
       id="g62"
       style="display:inline;enable-background:new">
      <path
         style="fill:url(#linearGradient27502)"
         inkscape:connector-curvature="0"
         d="m -22.552093,87.239825 c 17.2643603,36.266055 66.11848,56.467135 96.28742,57.485025 14.86081,-0.0446 30.776773,-3.86851 44.071863,-9.58084 13.29509,-5.71233 26.71582,-22.49711 40.71855,-20.11977 14.00273,2.37734 16.72673,20.39173 19.64073,31.61677 2.914,11.22504 -0.77395,19.70712 -3.3533,25.86827 -2.57935,6.16115 -2.42232,6.37966 -8.62275,11.01796 -6.20043,4.6383 -20.84612,9.27065 -30.17964,11.97604 -59.897943,15.03655 -121.936043,-17.04076 -150.419163,-68.98203 -6.42452,-11.95737 -11.46919,-26.35415 -12.45509,-34.011965 -0.9859,-7.65782 -1.6128,-9.38178 0.95808,-10.05988 2.57088,-0.6781 3.59282,2.87425 3.3533,4.79042 z"
         id="path50" />
      <path
         style="opacity:0.2"
         inkscape:connector-curvature="0"
         d="m 120.67249,64.465205 c 1.91616,0.95809 37.36527,36.407195 37.36527,36.407195 l 3.35329,4.31138 c 0,0 -14.37126,21.07784 -16.76647,19.16168 C 142.22937,122.42929 97.199444,90.333479 97.199444,90.333479 90.678124,77.307845 108.4137,58.528875 120.67249,64.465205 Z"
         id="path52" />
      <path
         style="opacity:0.2;fill:#180000"
         inkscape:connector-curvature="0"
         d="m -76.153067,-80.488449 c 21.47842,12.763076 60.5395,37.12516 60.5395,37.12516 0,0 40.16866,24.294753 52.83643,32.266595 12.66776,7.971842 14.42328,8.668474 25.03647,15.086769 10.61318,6.418296 23.46674,16.593385 23.46674,16.593385 0,0 13.020791,11.468863 17.009687,16.204355 3.9889,4.735491 7.42464,9.215321 9.93967,14.081191 2.51503,4.86587 5.71621,14.517157 5.71621,14.517157 l -16.38369,28.307804 c 0,0 -5.884137,1.65296 -13.275857,0.63811 -7.39172,-1.01486 -18.16929,-6.23556 -25.70474,-10.28277 -7.53545,-4.047204 -11.12653,-6.33595 -19.4379,-13.32394 -8.31137,-6.987991 -16.41871,-15.754522 -29.68549,-29.296469 -6.1262999,-6.25336 -16.8535298,-18.538782 -27.2566,-29.636638 -12.12527,-12.935074 -23.60019,-24.361826 -23.60019,-24.361826 0,0 -33.4884,-34.461938 -50.01415,-53.304392 -6.02555,-9.157819 2.47067,-17.640083 10.81391,-14.614491 z"
         id="path54" />
      <path
         style="fill:#494949"
         inkscape:connector-curvature="0"
         d="m -73.434241,-83.207275 c 21.47842,12.763076 60.5395,37.12516 60.5395,37.12516 0,0 40.16866,24.294753 52.83643,32.266595 12.66776,7.9718421 14.42328,8.6684741 25.03647,15.0867691 10.61318,6.418296 23.46674,16.5933849 23.46674,16.5933849 0,0 13.020791,11.468863 17.009691,16.204355 3.9889,4.735491 7.42464,9.215321 9.93967,14.081191 2.51503,4.86587 5.71621,14.517157 5.71621,14.517157 l -16.38369,28.307804 c 0,0 -5.884141,1.65296 -13.275861,0.63811 -7.39172,-1.01486 -18.16929,-6.23556 -25.70474,-10.28277 -7.53545,-4.047204 -11.12653,-6.33595 -19.4379,-13.32394 -8.31137,-6.987991 -16.41871,-15.754522 -29.68549,-29.296469 -6.1263,-6.25336 -16.8535299,-18.538782 -27.2566,-29.6366379 -12.12527,-12.935074 -23.60019,-24.3618261 -23.60019,-24.3618261 0,0 -33.4884,-34.461938 -50.01415,-53.304392 -6.02555,-9.157819 2.47067,-17.640083 10.81391,-14.614491 z"
         id="path56" />
      <path
         style="fill:#bfbebf"
         inkscape:connector-curvature="0"
         d="m 121.11047,62.667337 c 1.91616,0.95809 37.36527,36.407194 37.36527,36.407194 l 3.35329,4.311379 c 0,0 -14.37126,21.07784 -16.76647,19.16168 C 142.66735,120.63142 97.637409,88.535611 97.637409,88.535611 91.116089,75.509977 108.85168,56.731007 121.11047,62.667337 Z"
         id="path58" />
      <path
         inkscape:connector-curvature="0"
         d="m 163.35248,181.96031 c 3.92757,-7.69867 2.41927,-16.17171 -4.71877,-26.50828 -13.30017,-19.25991 -15.98059,-24.6234 -16.45096,-32.9182 -0.46366,-8.17644 5.96708,-18.33446 14.29743,-22.584289 16.5865,-8.4618 37.83479,11.463759 37.83479,35.479529 0,17.82282 -9.53306,34.08475 -28.09439,47.92467 -4.84784,3.6147 -5.30881,3.39074 -2.8681,-1.39343 z"
         id="path60" />
    </g>
  </g>
</svg>
