<?xml version="1.0" encoding="UTF-8" standalone="no"?>
<svg
   xmlns:dc="http://purl.org/dc/elements/1.1/"
   xmlns:cc="http://creativecommons.org/ns#"
   xmlns:rdf="http://www.w3.org/1999/02/22-rdf-syntax-ns#"
   xmlns:svg="http://www.w3.org/2000/svg"
   xmlns="http://www.w3.org/2000/svg"
   xmlns:xlink="http://www.w3.org/1999/xlink"
   xmlns:sodipodi="http://sodipodi.sourceforge.net/DTD/sodipodi-0.dtd"
   xmlns:inkscape="http://www.inkscape.org/namespaces/inkscape"
   inkscape:version="1.0 (1.0+r73+1)"
   sodipodi:docname="application-pgp-signature.svg"
   id="svg1423"
   viewBox="0 0 16.933 16.933"
   version="1.1"
   height="64"
   width="64">
  <metadata
     id="metadata1427">
    <rdf:RDF>
      <cc:Work
         rdf:about="">
        <dc:format>image/svg+xml</dc:format>
        <dc:type
           rdf:resource="http://purl.org/dc/dcmitype/StillImage" />
      </cc:Work>
    </rdf:RDF>
  </metadata>
  <sodipodi:namedview
     inkscape:current-layer="svg1423"
     inkscape:window-maximized="1"
     inkscape:window-y="28"
     inkscape:window-x="0"
     inkscape:cy="73.027813"
     inkscape:cx="-21.807338"
     inkscape:zoom="2.0507813"
     showgrid="false"
     id="namedview1425"
     inkscape:window-height="708"
     inkscape:window-width="1366"
     inkscape:pageshadow="2"
     inkscape:pageopacity="0"
     guidetolerance="10"
     gridtolerance="10"
     objecttolerance="10"
     borderopacity="1"
     bordercolor="#666666"
     pagecolor="#ffffff" />
  <defs
     id="defs1341">
    <linearGradient
       xlink:href="#linearGradient6067"
       gradientUnits="userSpaceOnUse"
       y2="16.933"
       y1="15.346"
       x2="7.9373"
       x1="7.9373"
       id="linearGradient6191" />
    <linearGradient
       id="linearGradient6067">
      <stop
         id="stop1297"
         offset="0" />
      <stop
         id="stop1299"
         offset="1"
         stop-opacity="0" />
    </linearGradient>
    <radialGradient
       xlink:href="#linearGradient6067"
       gradientUnits="userSpaceOnUse"
       gradientTransform="matrix(1.696 0 0 1.0731 -24.361 -.29238)"
       r="3.7275"
       cy="4"
       cx="35"
       id="radialGradient6247" />
    <linearGradient
       xlink:href="#linearGradient6067"
       gradientUnits="userSpaceOnUse"
       y2="8.2517"
       y1="12"
       x2="46.748"
       x1="43"
       id="linearGradient6263" />
    <radialGradient
       xlink:href="#linearGradient6067"
       gradientUnits="userSpaceOnUse"
       gradientTransform="matrix(.96042 0 0 1.3331 2.0581 -7.3283)"
       r="5.2061"
       cy="22"
       cx="52"
       id="radialGradient6255" />
    <linearGradient
       xlink:href="#linearGradient6067"
       gradientUnits="userSpaceOnUse"
       y1="1.0583"
       x2="5.8207"
       x1="5.8207"
       id="linearGradient6239" />
    <radialGradient
       xlink:href="#linearGradient6067"
       gradientUnits="userSpaceOnUse"
       gradientTransform="matrix(-2.1078e-8 -1.3333 1.6667 -2.6348e-8 .97012 5.2916)"
       r=".79373"
       cy="1.3229"
       cx="3.1749"
       id="radialGradient6231" />
    <linearGradient
       xlink:href="#linearGradient6067"
       gradientUnits="userSpaceOnUse"
       y2="10.583"
       y1="10.583"
       x2="15.081"
       x1="13.758"
       id="linearGradient6215" />
    <linearGradient
       xlink:href="#linearGradient6067"
       gradientUnits="userSpaceOnUse"
       y2="8.4665"
       y1="8.4665"
       x2="1.852"
       x1="3.1749"
       id="linearGradient6223" />
    <radialGradient
       xlink:href="#linearGradient6067"
       gradientUnits="userSpaceOnUse"
       gradientTransform="matrix(5.1718e-7 2 -1.6667 4.3098e-7 39.334 -12.171)"
       r=".79373"
       cy="15.346"
       cx="13.758"
       id="radialGradient6207" />
    <radialGradient
       xlink:href="#linearGradient6067"
       gradientUnits="userSpaceOnUse"
       gradientTransform="matrix(-1.6667 -1.37e-6 1.644e-6 -2 8.4665 46.037)"
       r=".79373"
       cy="15.346"
       cx="3.1749"
       id="radialGradient6199" />
    <linearGradient
       xlink:href="#linearGradient6067"
       gradientUnits="userSpaceOnUse"
       y2="16.668"
       y1="15.346"
       x2="7.9373"
       x1="7.9373"
       id="linearGradient6315" />
    <radialGradient
       xlink:href="#linearGradient6067"
       gradientUnits="userSpaceOnUse"
       gradientTransform="matrix(1.6115 -1.9122e-7 9.5496e-8 .80482 -21.403 .78072)"
       r="3.7275"
       cy="4"
       cx="35"
       id="radialGradient6331" />
    <linearGradient
       xlink:href="#linearGradient6067"
       gradientUnits="userSpaceOnUse"
       y2="8.9965"
       y1="12"
       x2="46.004"
       x1="43"
       id="linearGradient6333" />
    <radialGradient
       xlink:href="#linearGradient6067"
       gradientUnits="userSpaceOnUse"
       gradientTransform="matrix(.76834 -9.6042e-8 1.534e-7 1.2272 12.047 -4.9986)"
       r="5.2061"
       cy="22"
       cx="52"
       id="radialGradient6321" />
    <linearGradient
       xlink:href="#linearGradient6067"
       gradientUnits="userSpaceOnUse"
       y2=".26458"
       y1="1.0583"
       x2="5.8207"
       x1="5.8207"
       id="linearGradient6335" />
    <radialGradient
       xlink:href="#linearGradient6067"
       gradientUnits="userSpaceOnUse"
       gradientTransform="matrix(-7.442e-8 -1 1.3333 -9.9226e-8 1.4111 4.2333)"
       r=".79373"
       cy="1.3229"
       cx="3.1749"
       id="radialGradient6337" />
    <linearGradient
       xlink:href="#linearGradient6067"
       gradientUnits="userSpaceOnUse"
       y2="10.583"
       y1="10.583"
       x2="14.816"
       x1="13.758"
       id="linearGradient6319" />
    <linearGradient
       xlink:href="#linearGradient6067"
       gradientUnits="userSpaceOnUse"
       y2="8.4665"
       y1="8.4665"
       x2="2.1166"
       x1="3.1749"
       id="linearGradient6309" />
    <radialGradient
       xlink:href="#linearGradient6067"
       gradientUnits="userSpaceOnUse"
       gradientTransform="matrix(0 1.6667 -1.3333 0 34.219 -7.5846)"
       r=".79373"
       cy="15.346"
       cx="13.758"
       id="radialGradient6317" />
    <radialGradient
       xlink:href="#linearGradient6067"
       gradientUnits="userSpaceOnUse"
       gradientTransform="matrix(-1.3333 0 0 -1.6667 7.4082 40.921)"
       r=".79373"
       cy="15.346"
       cx="3.1749"
       id="radialGradient6311" />
    <linearGradient
       gradientUnits="userSpaceOnUse"
       gradientTransform="matrix(.26458 0 0 .26458 .046771 -.26458)"
       y2="60"
       y1="9"
       x2="11"
       x1="45"
       id="linearGradient4553">
      <stop
         id="stop1321"
         offset="0"
         stop-color="#ededed" />
      <stop
         id="stop1323"
         offset="1"
         stop-color="#fcfcfc" />
    </linearGradient>
    <radialGradient
       xlink:href="#linearGradient6067"
       gradientUnits="userSpaceOnUse"
       gradientTransform="matrix(.39687 0 0 -.52916 -3.6573 10.583)"
       r="8"
       cy="12"
       cx="40"
       id="radialGradient6129" />
    <radialGradient
       xlink:href="#linearGradient6067"
       gradientUnits="userSpaceOnUse"
       gradientTransform="matrix(-2 3.1236e-7 -3.1236e-7 -2 31.796 12.7)"
       r="2.1166"
       cy="4.2333"
       cx="10.583"
       id="radialGradient6017" />
    <radialGradient
       xlink:href="#linearGradient6067"
       gradientUnits="userSpaceOnUse"
       gradientTransform="matrix(0 -.39687 .52916 0 4.28 18.52)"
       r="8"
       cy="12"
       cx="40"
       id="radialGradient6042" />
    <linearGradient
       xlink:href="#linearGradient6067"
       gradientUnits="userSpaceOnUse"
       gradientTransform="matrix(1 0 0 .66667 .046771 1.4111)"
       y2="3.1749"
       y1="3.1749"
       x2="6.3499"
       x1="10.583"
       id="linearGradient6093" />
    <linearGradient
       xlink:href="#linearGradient6067"
       gradientUnits="userSpaceOnUse"
       gradientTransform="matrix(1 0 0 .66667 .046771 1.4111)"
       y2="3.0426"
       y1="3.0426"
       x2="8.7311"
       x1="10.583"
       id="linearGradient6073" />
    <radialGradient
       xlink:href="#linearGradient6067"
       gradientUnits="userSpaceOnUse"
       gradientTransform="matrix(-.875 -1.6564e-7 1.6631e-7 -.87849 19.89 7.9521)"
       r="2.1166"
       cy="4.2333"
       cx="10.583"
       id="radialGradient6083" />
    <radialGradient
       xlink:href="#linearGradient6067"
       gradientUnits="userSpaceOnUse"
       gradientTransform="matrix(0 -.34601 .23278 0 7.8365 16.486)"
       r="8"
       cy="12"
       cx="40"
       id="radialGradient6089" />
    <linearGradient
       xlink:href="#linearGradient6067"
       gradientUnits="userSpaceOnUse"
       gradientTransform="matrix(1 0 0 .66667 -14.816 9.3952)"
       y2="3.1749"
       y1="3.1749"
       x2="6.3499"
       x1="10.583"
       id="linearGradient6121" />
    <linearGradient
       xlink:href="#linearGradient6067"
       gradientUnits="userSpaceOnUse"
       gradientTransform="matrix(1 0 0 .66667 -14.816 9.3952)"
       y2="3.0426"
       y1="3.0426"
       x2="8.7237"
       x1="10.583"
       id="linearGradient6123" />
    <radialGradient
       xlink:href="#linearGradient6067"
       gradientUnits="userSpaceOnUse"
       gradientTransform="matrix(.3793 0 0 -.23243 -2.9547 7.0224)"
       r="8"
       cy="12"
       cx="40"
       id="radialGradient6131" />
    <linearGradient
       gradientUnits="userSpaceOnUse"
       gradientTransform="matrix(.26458 0 0 .26458 .046771 -.26458)"
       y2="11"
       y1="17"
       x2="46"
       x1="40"
       id="linearGradient4561">
      <stop
         id="stop1336"
         offset="0"
         stop-color="#fefefe" />
      <stop
         id="stop1338"
         offset="1"
         stop-color="#e9e9e9" />
    </linearGradient>
    <linearGradient
       gradientTransform="translate(10.000001,-12.000006)"
       gradientUnits="userSpaceOnUse"
       y2="204"
       x2="76"
       y1="176"
       x1="204"
       id="linearGradient942"
       xlink:href="#linearGradient1064"
       inkscape:collect="always" />
    <linearGradient
       id="linearGradient1064"
       inkscape:collect="always">
      <stop
         id="stop1060"
         offset="0"
         style="stop-color:#000000;stop-opacity:1;" />
      <stop
         id="stop1062"
         offset="1"
         style="stop-color:#000000;stop-opacity:0.50485438" />
    </linearGradient>
  </defs>
  <g
     id="g1415"
     transform="translate(-.052351)">
    <g
       id="g1363"
       opacity=".1"
       transform="translate(.046771)">
      <rect
         id="rect1343"
         opacity="1"
         fill="url(#linearGradient6191)"
         height="1.5875"
         width="10.583"
         y="15.346"
         x="3.1749" />
      <path
         id="path1345"
         opacity="1"
         fill="url(#radialGradient6247)"
         d="m35 0 1e-6 7 7-7z"
         transform="scale(.26458)" />
      <path
         id="path1347"
         opacity="1"
         fill="url(#linearGradient6263)"
         d="m42 0-7 7 14 15 9-9 2e-6 -9.4551-3.5449-3.5449z"
         transform="scale(.26458)" />
      <path
         id="path1349"
         opacity="1"
         fill="url(#radialGradient6255)"
         d="m58 13-9 9h9z"
         transform="scale(.26458)" />
      <rect
         id="rect1351"
         opacity="1"
         fill="url(#linearGradient6239)"
         height="1.0583"
         width="6.0853"
         x="3.1749" />
      <rect
         id="rect1353"
         opacity="1"
         fill="url(#radialGradient6231)"
         height="1.0583"
         width="1.5875"
         x="1.5875" />
      <rect
         id="rect1355"
         opacity="1"
         fill="url(#linearGradient6215)"
         height="9.5248"
         width="1.5875"
         y="5.8207"
         x="13.758" />
      <rect
         id="rect1357"
         opacity="1"
         fill="url(#linearGradient6223)"
         height="14.287"
         width="1.5875"
         y="1.0583"
         x="1.5875" />
      <rect
         id="rect1359"
         opacity="1"
         fill="url(#radialGradient6207)"
         height="1.5875"
         width="1.5875"
         y="15.346"
         x="13.758" />
      <rect
         id="rect1361"
         opacity="1"
         fill="url(#radialGradient6199)"
         height="1.5875"
         width="1.5875"
         y="15.346"
         x="1.5875" />
    </g>
    <g
       id="g1385"
       opacity=".2"
       transform="translate(.046771)">
      <rect
         id="rect1365"
         opacity="1"
         fill="url(#linearGradient6315)"
         height="1.5875"
         width="10.583"
         y="15.346"
         x="3.1749" />
      <path
         id="path1367"
         opacity="1"
         fill="url(#radialGradient6331)"
         d="m35 0 1e-6 7 7-7z"
         transform="scale(.26458)" />
      <path
         id="path1369"
         opacity="1"
         fill="url(#linearGradient6333)"
         d="m42 0-7 7 14 15 9-9 2e-6 -9.4551-3.5449-3.5449z"
         transform="scale(.26458)" />
      <path
         id="path1371"
         opacity="1"
         fill="url(#radialGradient6321)"
         d="m58 13-9 9h9z"
         transform="scale(.26458)" />
      <rect
         id="rect1373"
         opacity="1"
         fill="url(#linearGradient6335)"
         height="1.0583"
         width="6.0853"
         x="3.1749" />
      <rect
         id="rect1375"
         opacity="1"
         fill="url(#radialGradient6337)"
         ry="0"
         height="1.0583"
         width="1.5875"
         x="1.5875" />
      <rect
         id="rect1377"
         opacity="1"
         fill="url(#linearGradient6319)"
         height="9.5248"
         width="1.5875"
         y="5.8207"
         x="13.758" />
      <rect
         id="rect1379"
         opacity="1"
         fill="url(#linearGradient6309)"
         height="14.287"
         width="1.5875"
         y="1.0583"
         x="1.5875" />
      <rect
         id="rect1381"
         opacity="1"
         fill="url(#radialGradient6317)"
         height="1.5875"
         width="1.5875"
         y="15.346"
         x="13.758" />
      <rect
         id="rect1383"
         opacity="1"
         fill="url(#radialGradient6311)"
         height="1.5875"
         width="1.5875"
         y="15.346"
         x="1.5875" />
    </g>
    <path
       id="path1387"
       stroke-width=".26458"
       fill="url(#linearGradient4553)"
       d="m2.9572 0.26458c-0.29316 0-0.52916 0.23601-0.52916 0.52916v14.816c0 0.29316 0.23601 0.52916 0.52916 0.52916h11.112c0.29316 0 0.52916-0.23601 0.52916-0.52916v-10.319c0-0.26458-0.16113-0.69029-0.52916-1.0583l-3.4395-3.4395c-0.35403-0.44799-0.79374-0.52916-1.0583-0.52916z" />
    <path
       id="path1389"
       opacity=".05"
       fill="url(#radialGradient6129)"
       d="m12.217 4.2332v4.2332h2.3812v-3.1749c0-0.034876-0.0069-0.079523-0.01034-0.11989-0.03935-0.26272-0.20199-0.6216-0.51882-0.93843z" />
    <rect
       id="rect1391"
       fill="none"
       height="6.6348"
       width="6.6358"
       y="-.54211"
       x="8.7676" />
    <g
       id="g1411">
      <rect
         id="rect1393"
         opacity=".05"
         fill="url(#radialGradient6017)"
         ry="0"
         height="4.2333"
         width="4.2333"
         y="4.2333"
         x="6.3966" />
      <path
         id="path1395"
         opacity=".05"
         fill="url(#radialGradient6042)"
         d="m6.3966 0.26458v2.3812h4.2332v-1.852c-0.35403-0.44799-0.79373-0.52916-1.0583-0.52916z" />
      <rect
         id="rect1397"
         opacity=".05"
         fill="url(#linearGradient6093)"
         ry="0"
         height="1.5875"
         width="4.2333"
         y="2.6458"
         x="6.3966" />
      <rect
         id="rect1399"
         opacity=".2"
         fill="url(#linearGradient6073)"
         ry="0"
         height="1.5875"
         width="2.9104"
         y="2.6458"
         x="7.7195" />
      <rect
         id="rect1401"
         opacity=".2"
         fill="url(#radialGradient6083)"
         ry="0"
         height="2.9104"
         width="2.9104"
         y="4.2333"
         x="7.7195" />
      <path
         id="path1403"
         opacity=".2"
         fill="url(#radialGradient6089)"
         d="m7.7195 0.26458v2.3812h2.9104v-1.852c-0.14016-0.17736-0.29358-0.29558-0.44441-0.37568l-0.6139-0.15348z" />
      <rect
         id="rect1405"
         opacity=".05"
         fill="url(#linearGradient6121)"
         ry="0"
         height="1.5875"
         width="4.2333"
         y="10.63"
         x="-8.4665"
         transform="rotate(-90)" />
      <rect
         id="rect1407"
         opacity=".2"
         fill="url(#linearGradient6123)"
         ry="0"
         height="1.5875"
         width="2.9104"
         y="10.63"
         x="-7.1436"
         transform="rotate(-90)" />
      <path
         id="path1409"
         opacity=".2"
         fill="url(#radialGradient6131)"
         d="m12.217 4.2332v2.9104h2.3812v-1.852l-0.11627-0.4656c-0.085847-0.19266-0.2205-0.40033-0.41289-0.59272z" />
    </g>
    <path
       id="path1413"
       fill="url(#linearGradient4561)"
       d="m10.101 0.37542v3.8561c0 0.29315 0.23601 0.52917 0.52917 0.52917h3.822c-0.08627-0.1743-0.21103-0.35779-0.3824-0.52917l-3.4396-3.4396c-0.16657-0.21078-0.35183-0.33839-0.52917-0.41652z" />
  </g>
  <g
     transform="matrix(0.05953008,0,0,0.05953008,-1.038469,0.92027955)"
     style="display:inline;enable-background:new"
     id="g2045">
    <path
       style="display:inline;fill:none;stroke:url(#linearGradient942);stroke-width:2;stroke-linecap:round;stroke-linejoin:round;stroke-miterlimit:4;stroke-dasharray:none;stroke-opacity:1;enable-background:new"
       d="m 94,192 c 16.81748,-20.70017 46,-66 24,-68 -22,-2 -32,56 -2,60 30,4 46,-42 34,-46 -12,-4 -20,26 -10,36 10,10 35.09057,-20.72531 35.09057,-20.72531 C 168.50113,180.42477 195.66417,178.24796 212,165"
       id="path934"
       inkscape:connector-curvature="0"
       sodipodi:nodetypes="czzzzcc"
       transform="translate(-4.5697751e-6)" />
    <g
       id="g1000"
       transform="rotate(-15,14.510391,190)">
      <path
         style="display:inline;fill:#333333;stroke:none;stroke-width:1.29778px;stroke-linecap:butt;stroke-linejoin:miter;stroke-opacity:1;enable-background:new"
         d="m 193.59692,195.15541 4.24108,12.53694 13.60029,8.63191 -6.85645,-11.87573 c -0.23189,-1e-4 -0.44672,-0.12361 -0.5625,-0.32501 -0.17917,-0.31034 -0.073,-0.70709 0.2375,-0.88638 0.31049,-0.17927 0.70722,-0.0728 0.88644,0.23749 0.11506,0.20053 0.11465,0.44717 -0.001,0.64745 L 212,216 l -0.67532,-16.09417 -8.73671,-9.94137 z"
         id="path970"
         inkscape:connector-curvature="0"
         sodipodi:nodetypes="cccccscccccc" />
      <path
         style="display:inline;opacity:1;fill:#333333;fill-opacity:1;stroke:none;stroke-width:1.10819;stroke-linecap:butt;stroke-linejoin:round;stroke-miterlimit:4;stroke-dasharray:none;stroke-opacity:1;enable-background:new"
         d="m 152.43103,100.49393 c 2.50861,4.34505 2.02628,9.31999 -1.07732,11.11185 -3.10361,1.79187 -7.65319,-0.27789 -10.16181,-4.62294 -2.5086,-4.34503 -2.02628,-9.319976 1.07732,-11.111841 3.10361,-1.791865 7.6532,0.277899 10.16181,4.622931 z"
         id="path972"
         inkscape:connector-curvature="0"
         sodipodi:nodetypes="sssss" />
      <path
         style="display:inline;opacity:1;fill:#6d6d6d;fill-opacity:1;stroke:none;stroke-width:1.29778;stroke-linecap:butt;stroke-linejoin:round;stroke-miterlimit:4;stroke-dasharray:none;stroke-opacity:1;enable-background:new"
         d="m 141.1919,106.98284 11.23913,-6.48891 51.28108,88.82146 -11.23912,6.48891 z"
         id="path974"
         inkscape:connector-curvature="0"
         sodipodi:nodetypes="ccccc" />
      <path
         style="display:inline;opacity:1;fill:#ffe680;fill-opacity:1;stroke:none;stroke-width:1.29778;stroke-linecap:butt;stroke-linejoin:round;stroke-miterlimit:4;stroke-dasharray:none;stroke-opacity:1;enable-background:new"
         d="m 178.84628,172.20213 11.23912,-6.48891 0.64889,1.12391 -11.23912,6.48891 z"
         id="path976"
         inkscape:connector-curvature="0"
         sodipodi:nodetypes="ccccc" />
      <path
         style="display:inline;opacity:1;fill:#ffe680;fill-opacity:1;stroke:none;stroke-width:1.29778;stroke-linecap:butt;stroke-linejoin:round;stroke-miterlimit:4;stroke-dasharray:none;stroke-opacity:1;enable-background:new"
         d="m 191.82411,194.6804 11.23912,-6.48891 0.64889,1.12391 -11.23912,6.48891 z"
         id="path978"
         inkscape:connector-curvature="0"
         sodipodi:nodetypes="ccccc" />
      <path
         style="opacity:1;fill:#999999;fill-opacity:1;stroke:none;stroke-width:1.29778;stroke-linecap:butt;stroke-linejoin:round;stroke-miterlimit:4;stroke-dasharray:none;stroke-opacity:1"
         d="m 179.49517,173.32604 11.23912,-6.48891 12.32894,21.35435 -11.23912,6.48891 z"
         id="path980"
         inkscape:connector-curvature="0"
         sodipodi:nodetypes="ccccc" />
      <path
         inkscape:connector-curvature="0"
         style="display:inline;opacity:0.4;fill:#999999;fill-opacity:1;stroke:none;stroke-width:1.10819;stroke-linecap:butt;stroke-linejoin:round;stroke-miterlimit:4;stroke-dasharray:none;stroke-opacity:1;enable-background:new"
         d="m 146.23527,95.413344 c -1.45143,-0.35598 -2.83407,-0.196853 -3.96671,0.456511 -0.26398,0.157262 -0.51209,0.340815 -0.74274,0.548855 0.94937,-0.324461 2.01681,-0.354469 3.12,-0.08773 2.3778,0.581747 4.69653,2.482556 6.19649,5.0796 l 51.2808,88.82295 1.58944,-0.91768 -51.2808,-88.82295 c -1.49991,-2.597057 -3.81865,-4.497863 -6.19648,-5.07959 z"
         id="path982"
         sodipodi:nodetypes="cccccccccc" />
    </g>
  </g>
</svg>
