<?xml version="1.0" encoding="UTF-8" standalone="no"?>
<svg
   xmlns:dc="http://purl.org/dc/elements/1.1/"
   xmlns:cc="http://creativecommons.org/ns#"
   xmlns:rdf="http://www.w3.org/1999/02/22-rdf-syntax-ns#"
   xmlns:svg="http://www.w3.org/2000/svg"
   xmlns="http://www.w3.org/2000/svg"
   xmlns:xlink="http://www.w3.org/1999/xlink"
   xmlns:sodipodi="http://sodipodi.sourceforge.net/DTD/sodipodi-0.dtd"
   xmlns:inkscape="http://www.inkscape.org/namespaces/inkscape"
   width="64"
   height="64"
   version="1.1"
   viewBox="0 0 16.933 16.933"
   id="svg4304"
   sodipodi:docname="application-x-musescore3.svg"
   inkscape:version="1.0 (1.0+r73+1)">
  <metadata
     id="metadata4308">
    <rdf:RDF>
      <cc:Work
         rdf:about="">
        <dc:format>image/svg+xml</dc:format>
        <dc:type
           rdf:resource="http://purl.org/dc/dcmitype/StillImage" />
        <dc:title></dc:title>
        <dc:creator>
          <cc:Agent>
            <dc:title>Mohammad Mahdi Baghbani Pourvahid</dc:title>
          </cc:Agent>
        </dc:creator>
        <dc:publisher>
          <cc:Agent>
            <dc:title>Azadeh Afzar</dc:title>
          </cc:Agent>
        </dc:publisher>
      </cc:Work>
    </rdf:RDF>
  </metadata>
  <sodipodi:namedview
     inkscape:document-rotation="0"
     pagecolor="#ffffff"
     bordercolor="#666666"
     borderopacity="1"
     objecttolerance="10"
     gridtolerance="10"
     guidetolerance="10"
     inkscape:pageopacity="0"
     inkscape:pageshadow="2"
     inkscape:window-width="1366"
     inkscape:window-height="708"
     id="namedview4306"
     showgrid="false"
     inkscape:zoom="2.9002427"
     inkscape:cx="28.338997"
     inkscape:cy="44.035475"
     inkscape:window-x="0"
     inkscape:window-y="28"
     inkscape:window-maximized="1"
     inkscape:current-layer="svg4304" />
  <defs
     id="defs4222">
    <linearGradient
       id="b"
       x1="-666.12"
       x2="-553.27"
       y1="413.04"
       y2="525.91"
       gradientTransform="matrix(.99884 0 0 .9987 689.01 -388.84)"
       gradientUnits="userSpaceOnUse"
       xlink:href="#a" />
    <linearGradient
       id="a">
      <stop
         stop-color="#3b3b3b"
         offset="0"
         id="stop4171" />
      <stop
         stop-color="#fff"
         offset="1"
         id="stop4173" />
    </linearGradient>
    <linearGradient
       id="c"
       x1="-553.27"
       x2="-666.12"
       y1="525.91"
       y2="413.05"
       gradientTransform="matrix(.99884 0 0 .9987 689.01 -388.84)"
       gradientUnits="userSpaceOnUse"
       xlink:href="#a" />
    <linearGradient
       id="linearGradient6191"
       x1="7.9373"
       x2="7.9373"
       y1="15.346"
       y2="16.933"
       gradientUnits="userSpaceOnUse"
       xlink:href="#linearGradient6067" />
    <linearGradient
       id="linearGradient6067">
      <stop
         offset="0"
         id="stop4178" />
      <stop
         stop-opacity="0"
         offset="1"
         id="stop4180" />
    </linearGradient>
    <radialGradient
       id="radialGradient6247"
       cx="35"
       cy="4"
       r="3.7275"
       gradientTransform="matrix(1.696,0,0,1.0731,-24.361,-0.29238)"
       gradientUnits="userSpaceOnUse"
       xlink:href="#linearGradient6067" />
    <linearGradient
       id="linearGradient6263"
       x1="43"
       x2="46.748"
       y1="12"
       y2="8.2517"
       gradientUnits="userSpaceOnUse"
       xlink:href="#linearGradient6067" />
    <radialGradient
       id="radialGradient6255"
       cx="52"
       cy="22"
       r="5.2061"
       gradientTransform="matrix(0.96042,0,0,1.3331,2.0581,-7.3283)"
       gradientUnits="userSpaceOnUse"
       xlink:href="#linearGradient6067" />
    <linearGradient
       id="linearGradient6239"
       x1="5.8207"
       x2="5.8207"
       y1="1.0583"
       gradientUnits="userSpaceOnUse"
       xlink:href="#linearGradient6067" />
    <radialGradient
       id="radialGradient6231"
       cx="3.1749"
       cy="1.3229"
       r=".79373"
       gradientTransform="matrix(-2.1078e-8,-1.3333,1.6667,-2.6348e-8,0.97012,5.2916)"
       gradientUnits="userSpaceOnUse"
       xlink:href="#linearGradient6067" />
    <linearGradient
       id="linearGradient6215"
       x1="13.758"
       x2="15.081"
       y1="10.583"
       y2="10.583"
       gradientUnits="userSpaceOnUse"
       xlink:href="#linearGradient6067" />
    <linearGradient
       id="linearGradient6223"
       x1="3.1749"
       x2="1.852"
       y1="8.4665"
       y2="8.4665"
       gradientUnits="userSpaceOnUse"
       xlink:href="#linearGradient6067" />
    <radialGradient
       id="radialGradient6207"
       cx="13.758"
       cy="15.346"
       r=".79373"
       gradientTransform="matrix(5.1718e-7,2,-1.6667,4.3098e-7,39.334,-12.171)"
       gradientUnits="userSpaceOnUse"
       xlink:href="#linearGradient6067" />
    <radialGradient
       id="radialGradient6199"
       cx="3.1749"
       cy="15.346"
       r=".79373"
       gradientTransform="matrix(-1.6667,-1.37e-6,1.644e-6,-2,8.4665,46.037)"
       gradientUnits="userSpaceOnUse"
       xlink:href="#linearGradient6067" />
    <linearGradient
       id="linearGradient6315"
       x1="7.9373"
       x2="7.9373"
       y1="15.346"
       y2="16.668"
       gradientUnits="userSpaceOnUse"
       xlink:href="#linearGradient6067" />
    <radialGradient
       id="radialGradient6331"
       cx="35"
       cy="4"
       r="3.7275"
       gradientTransform="matrix(1.6115,-1.9122e-7,9.5496e-8,0.80482,-21.403,0.78072)"
       gradientUnits="userSpaceOnUse"
       xlink:href="#linearGradient6067" />
    <linearGradient
       id="linearGradient6333"
       x1="43"
       x2="46.004"
       y1="12"
       y2="8.9965"
       gradientUnits="userSpaceOnUse"
       xlink:href="#linearGradient6067" />
    <radialGradient
       id="radialGradient6321"
       cx="52"
       cy="22"
       r="5.2061"
       gradientTransform="matrix(0.76834,-9.6042e-8,1.534e-7,1.2272,12.047,-4.9986)"
       gradientUnits="userSpaceOnUse"
       xlink:href="#linearGradient6067" />
    <linearGradient
       id="linearGradient6335"
       x1="5.8207"
       x2="5.8207"
       y1="1.0583"
       y2=".26458"
       gradientUnits="userSpaceOnUse"
       xlink:href="#linearGradient6067" />
    <radialGradient
       id="radialGradient6337"
       cx="3.1749"
       cy="1.3229"
       r=".79373"
       gradientTransform="matrix(-7.442e-8,-1,1.3333,-9.9226e-8,1.4111,4.2333)"
       gradientUnits="userSpaceOnUse"
       xlink:href="#linearGradient6067" />
    <linearGradient
       id="linearGradient6319"
       x1="13.758"
       x2="14.816"
       y1="10.583"
       y2="10.583"
       gradientUnits="userSpaceOnUse"
       xlink:href="#linearGradient6067" />
    <linearGradient
       id="linearGradient6309"
       x1="3.1749"
       x2="2.1166"
       y1="8.4665"
       y2="8.4665"
       gradientUnits="userSpaceOnUse"
       xlink:href="#linearGradient6067" />
    <radialGradient
       id="radialGradient6317"
       cx="13.758"
       cy="15.346"
       r=".79373"
       gradientTransform="matrix(0,1.6667,-1.3333,0,34.219,-7.5846)"
       gradientUnits="userSpaceOnUse"
       xlink:href="#linearGradient6067" />
    <radialGradient
       id="radialGradient6311"
       cx="3.1749"
       cy="15.346"
       r=".79373"
       gradientTransform="matrix(-1.3333,0,0,-1.6667,7.4082,40.921)"
       gradientUnits="userSpaceOnUse"
       xlink:href="#linearGradient6067" />
    <linearGradient
       id="linearGradient4553"
       x1="45"
       x2="11"
       y1="9"
       y2="60"
       gradientTransform="matrix(0.26458,0,0,0.26458,-0.00558,-0.26458)"
       gradientUnits="userSpaceOnUse">
      <stop
         stop-color="#ededed"
         offset="0"
         id="stop4202" />
      <stop
         stop-color="#fcfcfc"
         offset="1"
         id="stop4204" />
    </linearGradient>
    <radialGradient
       id="radialGradient6129"
       cx="40"
       cy="12"
       r="8"
       gradientTransform="matrix(0.39687,0,0,-0.52916,-3.709651,10.583)"
       gradientUnits="userSpaceOnUse"
       xlink:href="#linearGradient6067" />
    <radialGradient
       id="radialGradient6017"
       cx="10.583"
       cy="4.2333"
       r="2.1166"
       gradientTransform="matrix(-2,3.1236e-7,-3.1236e-7,-2,31.796,12.7)"
       gradientUnits="userSpaceOnUse"
       xlink:href="#linearGradient6067" />
    <radialGradient
       id="radialGradient6042"
       cx="40"
       cy="12"
       r="8"
       gradientTransform="matrix(0,-0.39687,0.52916,0,4.28,18.52)"
       gradientUnits="userSpaceOnUse"
       xlink:href="#linearGradient6067" />
    <linearGradient
       id="linearGradient6093"
       x1="10.583"
       x2="6.3499"
       y1="3.1749"
       y2="3.1749"
       gradientTransform="matrix(1,0,0,0.66667,0.046771,1.4111)"
       gradientUnits="userSpaceOnUse"
       xlink:href="#linearGradient6067" />
    <linearGradient
       id="linearGradient6073"
       x1="10.583"
       x2="8.7311"
       y1="3.0426"
       y2="3.0426"
       gradientTransform="matrix(1,0,0,0.66667,0.046771,1.4111)"
       gradientUnits="userSpaceOnUse"
       xlink:href="#linearGradient6067" />
    <radialGradient
       id="radialGradient6083"
       cx="10.583"
       cy="4.2333"
       r="2.1166"
       gradientTransform="matrix(-0.875,-1.6564e-7,1.6631e-7,-0.87849,19.89,7.9521)"
       gradientUnits="userSpaceOnUse"
       xlink:href="#linearGradient6067" />
    <radialGradient
       id="radialGradient6089"
       cx="40"
       cy="12"
       r="8"
       gradientTransform="matrix(0,-0.34601,0.23278,0,7.8365,16.486)"
       gradientUnits="userSpaceOnUse"
       xlink:href="#linearGradient6067" />
    <linearGradient
       id="linearGradient6121"
       x1="10.583"
       x2="6.3499"
       y1="3.1749"
       y2="3.1749"
       gradientTransform="matrix(1,0,0,0.66667,-14.816,9.3952)"
       gradientUnits="userSpaceOnUse"
       xlink:href="#linearGradient6067" />
    <linearGradient
       id="linearGradient6123"
       x1="10.583"
       x2="8.7237"
       y1="3.0426"
       y2="3.0426"
       gradientTransform="matrix(1,0,0,0.66667,-14.816,9.3952)"
       gradientUnits="userSpaceOnUse"
       xlink:href="#linearGradient6067" />
    <radialGradient
       id="radialGradient6131"
       cx="40"
       cy="12"
       r="8"
       gradientTransform="matrix(0.3793,0,0,-0.23243,-2.9547,7.0224)"
       gradientUnits="userSpaceOnUse"
       xlink:href="#linearGradient6067" />
    <linearGradient
       id="linearGradient4561"
       x1="40"
       x2="46"
       y1="17"
       y2="11"
       gradientTransform="matrix(0.26458,0,0,0.26458,-0.00558,-0.26458)"
       gradientUnits="userSpaceOnUse">
      <stop
         stop-color="#fefefe"
         offset="0"
         id="stop4217" />
      <stop
         stop-color="#e9e9e9"
         offset="1"
         id="stop4219" />
    </linearGradient>
  </defs>
  <g
     id="g4244"
     opacity="0.1"
     transform="translate(-0.00558)">
    <rect
       id="rect4224"
       opacity="1"
       fill="url(#linearGradient6191)"
       height="1.5875"
       width="10.583"
       y="15.346"
       x="3.1749001"
       style="fill:url(#linearGradient6191)" />
    <path
       id="path4226"
       opacity="1"
       fill="url(#radialGradient6247)"
       d="m 35,0 10e-7,7 7,-7 z"
       transform="scale(0.26458)"
       style="fill:url(#radialGradient6247)" />
    <path
       id="path4228"
       opacity="1"
       fill="url(#linearGradient6263)"
       d="m 42,0 -7,7 14,15 9,-9 2e-6,-9.4551 L 54.455102,0 Z"
       transform="scale(0.26458)"
       style="fill:url(#linearGradient6263)" />
    <path
       id="path4230"
       opacity="1"
       fill="url(#radialGradient6255)"
       d="m 58,13 -9,9 h 9 z"
       transform="scale(0.26458)"
       style="fill:url(#radialGradient6255)" />
    <rect
       id="rect4232"
       opacity="1"
       fill="url(#linearGradient6239)"
       height="1.0583"
       width="6.0853"
       x="3.1749001"
       style="fill:url(#linearGradient6239)"
       y="0" />
    <rect
       id="rect4234"
       opacity="1"
       fill="url(#radialGradient6231)"
       height="1.0583"
       width="1.5875"
       x="1.5875"
       style="fill:url(#radialGradient6231)"
       y="0" />
    <rect
       id="rect4236"
       opacity="1"
       fill="url(#linearGradient6215)"
       height="9.5248003"
       width="1.5875"
       y="5.8207002"
       x="13.758"
       style="fill:url(#linearGradient6215)" />
    <rect
       id="rect4238"
       opacity="1"
       fill="url(#linearGradient6223)"
       height="14.287"
       width="1.5875"
       y="1.0583"
       x="1.5875"
       style="fill:url(#linearGradient6223)" />
    <rect
       id="rect4240"
       opacity="1"
       fill="url(#radialGradient6207)"
       height="1.5875"
       width="1.5875"
       y="15.346"
       x="13.758"
       style="fill:url(#radialGradient6207)" />
    <rect
       id="rect4242"
       opacity="1"
       fill="url(#radialGradient6199)"
       height="1.5875"
       width="1.5875"
       y="15.346"
       x="1.5875"
       style="fill:url(#radialGradient6199)" />
  </g>
  <g
     id="g4266"
     opacity="0.2"
     transform="translate(-0.00558)">
    <rect
       id="rect4246"
       opacity="1"
       fill="url(#linearGradient6315)"
       height="1.5875"
       width="10.583"
       y="15.346"
       x="3.1749001"
       style="fill:url(#linearGradient6315)" />
    <path
       id="path4248"
       opacity="1"
       fill="url(#radialGradient6331)"
       d="m 35,0 10e-7,7 7,-7 z"
       transform="scale(0.26458)"
       style="fill:url(#radialGradient6331)" />
    <path
       id="path4250"
       opacity="1"
       fill="url(#linearGradient6333)"
       d="m 42,0 -7,7 14,15 9,-9 2e-6,-9.4551 L 54.455102,0 Z"
       transform="scale(0.26458)"
       style="fill:url(#linearGradient6333)" />
    <path
       id="path4252"
       opacity="1"
       fill="url(#radialGradient6321)"
       d="m 58,13 -9,9 h 9 z"
       transform="scale(0.26458)"
       style="fill:url(#radialGradient6321)" />
    <rect
       id="rect4254"
       opacity="1"
       fill="url(#linearGradient6335)"
       height="1.0583"
       width="6.0853"
       x="3.1749001"
       style="fill:url(#linearGradient6335)"
       y="0" />
    <rect
       id="rect4256"
       opacity="1"
       fill="url(#radialGradient6337)"
       ry="0"
       height="1.0583"
       width="1.5875"
       x="1.5875"
       style="fill:url(#radialGradient6337)"
       y="0" />
    <rect
       id="rect4258"
       opacity="1"
       fill="url(#linearGradient6319)"
       height="9.5248003"
       width="1.5875"
       y="5.8207002"
       x="13.758"
       style="fill:url(#linearGradient6319)" />
    <rect
       id="rect4260"
       opacity="1"
       fill="url(#linearGradient6309)"
       height="14.287"
       width="1.5875"
       y="1.0583"
       x="1.5875"
       style="fill:url(#linearGradient6309)" />
    <rect
       id="rect4262"
       opacity="1"
       fill="url(#radialGradient6317)"
       height="1.5875"
       width="1.5875"
       y="15.346"
       x="13.758"
       style="fill:url(#radialGradient6317)" />
    <rect
       id="rect4264"
       opacity="1"
       fill="url(#radialGradient6311)"
       height="1.5875"
       width="1.5875"
       y="15.346"
       x="1.5875"
       style="fill:url(#radialGradient6311)" />
  </g>
  <path
     id="path4268"
     stroke-width="0.26458"
     fill="url(#linearGradient4553)"
     d="m 2.904849,0.26458 c -0.29316,0 -0.52916,0.23601 -0.52916,0.52916 v 14.816 c 0,0.29316 0.23601,0.52916 0.52916,0.52916 h 11.112 c 0.29316,0 0.52916,-0.23601 0.52916,-0.52916 v -10.319 c 0,-0.26458 -0.16113,-0.69029 -0.52916,-1.0583 l -3.4395,-3.4395 C 10.223319,0.34495 9.783609,0.26378 9.519049,0.26378 Z"
     style="fill:#1f74bd;fill-opacity:1" />
  <path
     id="path4270"
     opacity="0.05"
     fill="url(#radialGradient6129)"
     d="m 12.164649,4.2332 v 4.2332 h 2.3812 V 5.2915 c 0,-0.034876 -0.0069,-0.079523 -0.01034,-0.11989 -0.03935,-0.26272 -0.20199,-0.6216 -0.51882,-0.93843 z"
     style="fill:url(#radialGradient6129)" />
  <rect
     id="rect4272"
     fill="none"
     height="6.6348"
     width="6.6357999"
     y="-0.54211003"
     x="8.7152491" />
  <g
     transform="translate(-0.052351)"
     id="g4292">
    <rect
       id="rect4274"
       opacity="0.05"
       fill="url(#radialGradient6017)"
       ry="0"
       height="4.2333002"
       width="4.2333002"
       y="4.2333002"
       x="6.3965998"
       style="fill:url(#radialGradient6017)" />
    <path
       id="path4276"
       opacity="0.05"
       fill="url(#radialGradient6042)"
       d="m 6.3966,0.26458 v 2.3812 h 4.2332 v -1.852 C 10.27577,0.34579 9.83607,0.26462 9.5715,0.26462 Z"
       style="fill:url(#radialGradient6042)" />
    <rect
       id="rect4278"
       opacity="0.05"
       fill="url(#linearGradient6093)"
       ry="0"
       height="1.5875"
       width="4.2333002"
       y="2.6458001"
       x="6.3965998"
       style="fill:url(#linearGradient6093)" />
    <rect
       id="rect4280"
       opacity="0.2"
       fill="url(#linearGradient6073)"
       ry="0"
       height="1.5875"
       width="2.9103999"
       y="2.6458001"
       x="7.7195001"
       style="fill:url(#linearGradient6073)" />
    <rect
       id="rect4282"
       opacity="0.2"
       fill="url(#radialGradient6083)"
       ry="0"
       height="2.9103999"
       width="2.9103999"
       y="4.2333002"
       x="7.7195001"
       style="fill:url(#radialGradient6083)" />
    <path
       id="path4284"
       opacity="0.2"
       fill="url(#radialGradient6089)"
       d="m 7.7195,0.26458 v 2.3812 h 2.9104 v -1.852 C 10.48974,0.61642 10.33632,0.4982 10.18549,0.4181 L 9.57159,0.26462 Z"
       style="fill:url(#radialGradient6089)" />
    <rect
       id="rect4286"
       opacity="0.05"
       fill="url(#linearGradient6121)"
       ry="0"
       height="1.5875"
       width="4.2333002"
       y="10.63"
       x="-8.4665003"
       transform="rotate(-90)"
       style="fill:url(#linearGradient6121)" />
    <rect
       id="rect4288"
       opacity="0.2"
       fill="url(#linearGradient6123)"
       ry="0"
       height="1.5875"
       width="2.9103999"
       y="10.63"
       x="-7.1436"
       transform="rotate(-90)"
       style="fill:url(#linearGradient6123)" />
    <path
       id="path4290"
       opacity="0.2"
       fill="url(#radialGradient6131)"
       d="m 12.217,4.2332 v 2.9104 h 2.3812 V 5.2916 L 14.48193,4.826 C 14.396083,4.63334 14.26143,4.42567 14.06904,4.23328 Z"
       style="fill:url(#radialGradient6131)" />
  </g>
  <path
     id="path4294"
     fill="url(#linearGradient4561)"
     d="m 10.048649,0.37542 v 3.8561 c 0,0.29315 0.23601,0.52917 0.52917,0.52917 h 3.822 c -0.08627,-0.1743 -0.21103,-0.35779 -0.3824,-0.52917 l -3.4396,-3.4396 C 10.411249,0.58114 10.225989,0.45353 10.048649,0.3754 Z"
     style="fill:url(#linearGradient4561)" />
  <path
     inkscape:connector-curvature="0"
     style="display:inline;fill:#ffffff;fill-opacity:1;stroke-width:0.236333;enable-background:new"
     d="m 5.9588248,7.9189397 c 0.4581294,0 0.9497471,0.2264049 1.1991728,0.5713065 C 7.4073992,8.1453446 7.8995593,7.875195 8.3576887,7.875195 c 0.7783105,0 1.4609082,0.5680452 1.4609082,1.6558587 l 0.0175,0.7336913 c 0,1.127869 0.7438571,1.272173 1.0501421,1.272173 0.306286,0 1.022136,-0.205039 1.022136,-1.167668 V 8.3387352 c 0,-0.3492752 0.526807,-0.3492752 0.526807,0 V 10.36925 c -0.01872,1.268914 -0.936372,1.692019 -1.548943,1.692019 -0.612571,0 -1.5752,-0.362368 -1.5752,-1.796524 L 9.293259,9.4885838 c 0,-0.9133045 -0.6385688,-1.0452255 -0.935566,-1.0452255 -0.4678432,0 -0.9356854,0.388908 -0.9356854,1.0452255 V 11.79953 c 0,0.145013 -0.1175999,0.261739 -0.2626112,0.261739 h -0.00118 -0.00118 c -0.1450138,0 -0.2626353,-0.116725 -0.2626353,-0.261739 V 9.4885837 c 0,-0.6563175 -0.4678192,-1.0452255 -0.9356614,-1.0452255 -0.4678326,0 -0.9358428,0.246873 -0.9355811,1.2167295 V 11.79953 c 0,0.14414 -0.1176119,0.261739 -0.262706,0.261739 -0.145009,0 -0.2626245,-0.116725 -0.2626245,-0.261739 V 9.6600877 c 0,-1.2761425 0.7039382,-1.741148 1.4609092,-1.741148 z M 10.833953,6.0812059 c -0.668679,0 -1.0553911,0.5688232 -1.0553911,1.0938884 0,0.3937903 -0.5247039,0.3937903 -0.5247969,0 0,-0.9188662 0.6927359,-1.6189537 1.580188,-1.6189537 0.887449,0 1.580373,0.7000875 1.580373,1.6189537 0,0.3937903 -0.52631,0.3937903 -0.52631,0 0,-0.5250652 -0.385386,-1.0938884 -1.054063,-1.0938884 z m 0.05067,0.7619977 c 0.191475,0 0.346556,0.1550626 0.346556,0.3465451 0,0.1914826 -0.155081,0.3465439 -0.346556,0.3465439 -0.191453,0 -0.346534,-0.1550613 -0.346534,-0.3465439 0,-0.1914825 0.155081,-0.3465451 0.346534,-0.3465451 z"
     id="path2"
     sodipodi:nodetypes="scsccsssscsccsssscsssscsssssssscsssssssss" />
</svg>
