<?xml version="1.0" encoding="UTF-8" standalone="no"?>
<svg
   xmlns:dc="http://purl.org/dc/elements/1.1/"
   xmlns:cc="http://creativecommons.org/ns#"
   xmlns:rdf="http://www.w3.org/1999/02/22-rdf-syntax-ns#"
   xmlns:svg="http://www.w3.org/2000/svg"
   xmlns="http://www.w3.org/2000/svg"
   xmlns:xlink="http://www.w3.org/1999/xlink"
   xmlns:sodipodi="http://sodipodi.sourceforge.net/DTD/sodipodi-0.dtd"
   xmlns:inkscape="http://www.inkscape.org/namespaces/inkscape"
   width="64"
   height="64"
   version="1.1"
   viewBox="0 0 16.933 16.933"
   id="svg4304"
   sodipodi:docname="application-x-firmware.svg"
   inkscape:version="1.0 (1.0+r73+1)">
  <title
     id="title14282">Firmware</title>
  <metadata
     id="metadata4308">
    <rdf:RDF>
      <cc:Work
         rdf:about="">
        <dc:format>image/svg+xml</dc:format>
        <dc:type
           rdf:resource="http://purl.org/dc/dcmitype/StillImage" />
        <dc:title>Firmware</dc:title>
        <dc:creator>
          <cc:Agent>
            <dc:title>Mohammad Mahdi Baghbani Pourvahid</dc:title>
          </cc:Agent>
        </dc:creator>
        <dc:publisher>
          <cc:Agent>
            <dc:title>Azadeh Afzar</dc:title>
          </cc:Agent>
        </dc:publisher>
      </cc:Work>
    </rdf:RDF>
  </metadata>
  <sodipodi:namedview
     inkscape:document-rotation="0"
     pagecolor="#ffffff"
     bordercolor="#666666"
     borderopacity="1"
     objecttolerance="10"
     gridtolerance="10"
     guidetolerance="10"
     inkscape:pageopacity="0"
     inkscape:pageshadow="2"
     inkscape:window-width="1366"
     inkscape:window-height="708"
     id="namedview4306"
     showgrid="false"
     inkscape:zoom="2.0507813"
     inkscape:cx="-82.60309"
     inkscape:cy="44.942837"
     inkscape:window-x="0"
     inkscape:window-y="28"
     inkscape:window-maximized="1"
     inkscape:current-layer="svg4304" />
  <defs
     id="defs4222">
    <linearGradient
       id="b"
       x1="-666.12"
       x2="-553.27"
       y1="413.04"
       y2="525.91"
       gradientTransform="matrix(.99884 0 0 .9987 689.01 -388.84)"
       gradientUnits="userSpaceOnUse"
       xlink:href="#a" />
    <linearGradient
       id="a">
      <stop
         stop-color="#3b3b3b"
         offset="0"
         id="stop4171" />
      <stop
         stop-color="#fff"
         offset="1"
         id="stop4173" />
    </linearGradient>
    <linearGradient
       id="c"
       x1="-553.27"
       x2="-666.12"
       y1="525.91"
       y2="413.05"
       gradientTransform="matrix(.99884 0 0 .9987 689.01 -388.84)"
       gradientUnits="userSpaceOnUse"
       xlink:href="#a" />
    <linearGradient
       id="linearGradient6191"
       x1="7.9373"
       x2="7.9373"
       y1="15.346"
       y2="16.933"
       gradientUnits="userSpaceOnUse"
       xlink:href="#linearGradient6067" />
    <linearGradient
       id="linearGradient6067">
      <stop
         offset="0"
         id="stop4178" />
      <stop
         stop-opacity="0"
         offset="1"
         id="stop4180" />
    </linearGradient>
    <radialGradient
       id="radialGradient6247"
       cx="35"
       cy="4"
       r="3.7275"
       gradientTransform="matrix(1.696 0 0 1.0731 -24.361 -.29238)"
       gradientUnits="userSpaceOnUse"
       xlink:href="#linearGradient6067" />
    <linearGradient
       id="linearGradient6263"
       x1="43"
       x2="46.748"
       y1="12"
       y2="8.2517"
       gradientUnits="userSpaceOnUse"
       xlink:href="#linearGradient6067" />
    <radialGradient
       id="radialGradient6255"
       cx="52"
       cy="22"
       r="5.2061"
       gradientTransform="matrix(.96042 0 0 1.3331 2.0581 -7.3283)"
       gradientUnits="userSpaceOnUse"
       xlink:href="#linearGradient6067" />
    <linearGradient
       id="linearGradient6239"
       x1="5.8207"
       x2="5.8207"
       y1="1.0583"
       gradientUnits="userSpaceOnUse"
       xlink:href="#linearGradient6067" />
    <radialGradient
       id="radialGradient6231"
       cx="3.1749"
       cy="1.3229"
       r=".79373"
       gradientTransform="matrix(-2.1078e-8 -1.3333 1.6667 -2.6348e-8 .97012 5.2916)"
       gradientUnits="userSpaceOnUse"
       xlink:href="#linearGradient6067" />
    <linearGradient
       id="linearGradient6215"
       x1="13.758"
       x2="15.081"
       y1="10.583"
       y2="10.583"
       gradientUnits="userSpaceOnUse"
       xlink:href="#linearGradient6067" />
    <linearGradient
       id="linearGradient6223"
       x1="3.1749"
       x2="1.852"
       y1="8.4665"
       y2="8.4665"
       gradientUnits="userSpaceOnUse"
       xlink:href="#linearGradient6067" />
    <radialGradient
       id="radialGradient6207"
       cx="13.758"
       cy="15.346"
       r=".79373"
       gradientTransform="matrix(5.1718e-7 2 -1.6667 4.3098e-7 39.334 -12.171)"
       gradientUnits="userSpaceOnUse"
       xlink:href="#linearGradient6067" />
    <radialGradient
       id="radialGradient6199"
       cx="3.1749"
       cy="15.346"
       r=".79373"
       gradientTransform="matrix(-1.6667 -1.37e-6 1.644e-6 -2 8.4665 46.037)"
       gradientUnits="userSpaceOnUse"
       xlink:href="#linearGradient6067" />
    <linearGradient
       id="linearGradient6315"
       x1="7.9373"
       x2="7.9373"
       y1="15.346"
       y2="16.668"
       gradientUnits="userSpaceOnUse"
       xlink:href="#linearGradient6067" />
    <radialGradient
       id="radialGradient6331"
       cx="35"
       cy="4"
       r="3.7275"
       gradientTransform="matrix(1.6115 -1.9122e-7 9.5496e-8 .80482 -21.403 .78072)"
       gradientUnits="userSpaceOnUse"
       xlink:href="#linearGradient6067" />
    <linearGradient
       id="linearGradient6333"
       x1="43"
       x2="46.004"
       y1="12"
       y2="8.9965"
       gradientUnits="userSpaceOnUse"
       xlink:href="#linearGradient6067" />
    <radialGradient
       id="radialGradient6321"
       cx="52"
       cy="22"
       r="5.2061"
       gradientTransform="matrix(.76834 -9.6042e-8 1.534e-7 1.2272 12.047 -4.9986)"
       gradientUnits="userSpaceOnUse"
       xlink:href="#linearGradient6067" />
    <linearGradient
       id="linearGradient6335"
       x1="5.8207"
       x2="5.8207"
       y1="1.0583"
       y2=".26458"
       gradientUnits="userSpaceOnUse"
       xlink:href="#linearGradient6067" />
    <radialGradient
       id="radialGradient6337"
       cx="3.1749"
       cy="1.3229"
       r=".79373"
       gradientTransform="matrix(-7.442e-8 -1 1.3333 -9.9226e-8 1.4111 4.2333)"
       gradientUnits="userSpaceOnUse"
       xlink:href="#linearGradient6067" />
    <linearGradient
       id="linearGradient6319"
       x1="13.758"
       x2="14.816"
       y1="10.583"
       y2="10.583"
       gradientUnits="userSpaceOnUse"
       xlink:href="#linearGradient6067" />
    <linearGradient
       id="linearGradient6309"
       x1="3.1749"
       x2="2.1166"
       y1="8.4665"
       y2="8.4665"
       gradientUnits="userSpaceOnUse"
       xlink:href="#linearGradient6067" />
    <radialGradient
       id="radialGradient6317"
       cx="13.758"
       cy="15.346"
       r=".79373"
       gradientTransform="matrix(0 1.6667 -1.3333 0 34.219 -7.5846)"
       gradientUnits="userSpaceOnUse"
       xlink:href="#linearGradient6067" />
    <radialGradient
       id="radialGradient6311"
       cx="3.1749"
       cy="15.346"
       r=".79373"
       gradientTransform="matrix(-1.3333 0 0 -1.6667 7.4082 40.921)"
       gradientUnits="userSpaceOnUse"
       xlink:href="#linearGradient6067" />
    <linearGradient
       id="linearGradient4553"
       x1="45"
       x2="11"
       y1="9"
       y2="60"
       gradientTransform="matrix(.26458 0 0 .26458 .046771 -.26458)"
       gradientUnits="userSpaceOnUse">
      <stop
         stop-color="#ededed"
         offset="0"
         id="stop4202" />
      <stop
         stop-color="#fcfcfc"
         offset="1"
         id="stop4204" />
    </linearGradient>
    <radialGradient
       id="radialGradient6129"
       cx="40"
       cy="12"
       r="8"
       gradientTransform="matrix(.39687 0 0 -.52916 -3.6573 10.583)"
       gradientUnits="userSpaceOnUse"
       xlink:href="#linearGradient6067" />
    <radialGradient
       id="radialGradient6017"
       cx="10.583"
       cy="4.2333"
       r="2.1166"
       gradientTransform="matrix(-2 3.1236e-7 -3.1236e-7 -2 31.796 12.7)"
       gradientUnits="userSpaceOnUse"
       xlink:href="#linearGradient6067" />
    <radialGradient
       id="radialGradient6042"
       cx="40"
       cy="12"
       r="8"
       gradientTransform="matrix(0 -.39687 .52916 0 4.28 18.52)"
       gradientUnits="userSpaceOnUse"
       xlink:href="#linearGradient6067" />
    <linearGradient
       id="linearGradient6093"
       x1="10.583"
       x2="6.3499"
       y1="3.1749"
       y2="3.1749"
       gradientTransform="matrix(1 0 0 .66667 .046771 1.4111)"
       gradientUnits="userSpaceOnUse"
       xlink:href="#linearGradient6067" />
    <linearGradient
       id="linearGradient6073"
       x1="10.583"
       x2="8.7311"
       y1="3.0426"
       y2="3.0426"
       gradientTransform="matrix(1 0 0 .66667 .046771 1.4111)"
       gradientUnits="userSpaceOnUse"
       xlink:href="#linearGradient6067" />
    <radialGradient
       id="radialGradient6083"
       cx="10.583"
       cy="4.2333"
       r="2.1166"
       gradientTransform="matrix(-.875 -1.6564e-7 1.6631e-7 -.87849 19.89 7.9521)"
       gradientUnits="userSpaceOnUse"
       xlink:href="#linearGradient6067" />
    <radialGradient
       id="radialGradient6089"
       cx="40"
       cy="12"
       r="8"
       gradientTransform="matrix(0 -.34601 .23278 0 7.8365 16.486)"
       gradientUnits="userSpaceOnUse"
       xlink:href="#linearGradient6067" />
    <linearGradient
       id="linearGradient6121"
       x1="10.583"
       x2="6.3499"
       y1="3.1749"
       y2="3.1749"
       gradientTransform="matrix(1 0 0 .66667 -14.816 9.3952)"
       gradientUnits="userSpaceOnUse"
       xlink:href="#linearGradient6067" />
    <linearGradient
       id="linearGradient6123"
       x1="10.583"
       x2="8.7237"
       y1="3.0426"
       y2="3.0426"
       gradientTransform="matrix(1 0 0 .66667 -14.816 9.3952)"
       gradientUnits="userSpaceOnUse"
       xlink:href="#linearGradient6067" />
    <radialGradient
       id="radialGradient6131"
       cx="40"
       cy="12"
       r="8"
       gradientTransform="matrix(.3793 0 0 -.23243 -2.9547 7.0224)"
       gradientUnits="userSpaceOnUse"
       xlink:href="#linearGradient6067" />
    <linearGradient
       id="linearGradient4561"
       x1="40"
       x2="46"
       y1="17"
       y2="11"
       gradientTransform="matrix(.26458 0 0 .26458 .046771 -.26458)"
       gradientUnits="userSpaceOnUse">
      <stop
         stop-color="#fefefe"
         offset="0"
         id="stop4217" />
      <stop
         stop-color="#e9e9e9"
         offset="1"
         id="stop4219" />
    </linearGradient>
    <filter
       height="1.0219313"
       y="-0.010965657"
       width="1.0264996"
       x="-0.013249796"
       id="filter4346"
       style="color-interpolation-filters:sRGB"
       inkscape:collect="always">
      <feGaussianBlur
         id="feGaussianBlur4348"
         stdDeviation="2.120027"
         inkscape:collect="always" />
    </filter>
    <linearGradient
       gradientUnits="userSpaceOnUse"
       y2="488"
       x2="488"
       y1="88"
       x1="88"
       id="linearGradient4358"
       xlink:href="#linearGradient4360"
       inkscape:collect="always" />
    <linearGradient
       inkscape:collect="always"
       id="linearGradient4360">
      <stop
         style="stop-color:#000000;stop-opacity:0.58823532"
         offset="0"
         id="stop4362" />
      <stop
         id="stop4364"
         offset="0.88"
         style="stop-color:#000000;stop-opacity:0" />
      <stop
         style="stop-color:#000000;stop-opacity:1"
         offset="1"
         id="stop4366" />
    </linearGradient>
    <filter
       height="1.0877253"
       y="-0.043862626"
       width="1.1059984"
       x="-0.052999184"
       id="filter4380"
       style="color-interpolation-filters:sRGB"
       inkscape:collect="always">
      <feGaussianBlur
         id="feGaussianBlur4382"
         stdDeviation="8.4801079"
         inkscape:collect="always" />
    </filter>
    <linearGradient
       gradientTransform="matrix(0,-0.453125,-0.45311204,0,277.957,268)"
       inkscape:collect="always"
       xlink:href="#linearGradient942"
       id="linearGradient4226"
       x1="529.65515"
       y1="401.58368"
       x2="-35.310345"
       y2="119.09284"
       gradientUnits="userSpaceOnUse" />
    <linearGradient
       id="linearGradient942"
       inkscape:collect="always">
      <stop
         id="stop938"
         offset="0"
         style="stop-color:#4d4d4d;stop-opacity:1" />
      <stop
         id="stop940"
         offset="1"
         style="stop-color:#666666;stop-opacity:1" />
    </linearGradient>
  </defs>
  <g
     transform="translate(-.052351)"
     id="g4296">
    <g
       transform="translate(.046771)"
       opacity=".1"
       id="g4244">
      <rect
         x="3.1749"
         y="15.346"
         width="10.583"
         height="1.5875"
         fill="url(#linearGradient6191)"
         opacity="1"
         id="rect4224" />
      <path
         transform="scale(.26458)"
         d="m35 0 1e-6 7 7-7z"
         fill="url(#radialGradient6247)"
         opacity="1"
         id="path4226" />
      <path
         transform="scale(.26458)"
         d="m42 0-7 7 14 15 9-9 2e-6 -9.4551-3.5449-3.5449z"
         fill="url(#linearGradient6263)"
         opacity="1"
         id="path4228" />
      <path
         transform="scale(.26458)"
         d="m58 13-9 9h9z"
         fill="url(#radialGradient6255)"
         opacity="1"
         id="path4230" />
      <rect
         x="3.1749"
         width="6.0853"
         height="1.0583"
         fill="url(#linearGradient6239)"
         opacity="1"
         id="rect4232" />
      <rect
         x="1.5875"
         width="1.5875"
         height="1.0583"
         fill="url(#radialGradient6231)"
         opacity="1"
         id="rect4234" />
      <rect
         x="13.758"
         y="5.8207"
         width="1.5875"
         height="9.5248"
         fill="url(#linearGradient6215)"
         opacity="1"
         id="rect4236" />
      <rect
         x="1.5875"
         y="1.0583"
         width="1.5875"
         height="14.287"
         fill="url(#linearGradient6223)"
         opacity="1"
         id="rect4238" />
      <rect
         x="13.758"
         y="15.346"
         width="1.5875"
         height="1.5875"
         fill="url(#radialGradient6207)"
         opacity="1"
         id="rect4240" />
      <rect
         x="1.5875"
         y="15.346"
         width="1.5875"
         height="1.5875"
         fill="url(#radialGradient6199)"
         opacity="1"
         id="rect4242" />
    </g>
    <g
       transform="translate(.046771)"
       opacity=".2"
       id="g4266">
      <rect
         x="3.1749"
         y="15.346"
         width="10.583"
         height="1.5875"
         fill="url(#linearGradient6315)"
         opacity="1"
         id="rect4246" />
      <path
         transform="scale(.26458)"
         d="m35 0 1e-6 7 7-7z"
         fill="url(#radialGradient6331)"
         opacity="1"
         id="path4248" />
      <path
         transform="scale(.26458)"
         d="m42 0-7 7 14 15 9-9 2e-6 -9.4551-3.5449-3.5449z"
         fill="url(#linearGradient6333)"
         opacity="1"
         id="path4250" />
      <path
         transform="scale(.26458)"
         d="m58 13-9 9h9z"
         fill="url(#radialGradient6321)"
         opacity="1"
         id="path4252" />
      <rect
         x="3.1749"
         width="6.0853"
         height="1.0583"
         fill="url(#linearGradient6335)"
         opacity="1"
         id="rect4254" />
      <rect
         x="1.5875"
         width="1.5875"
         height="1.0583"
         ry="0"
         fill="url(#radialGradient6337)"
         opacity="1"
         id="rect4256" />
      <rect
         x="13.758"
         y="5.8207"
         width="1.5875"
         height="9.5248"
         fill="url(#linearGradient6319)"
         opacity="1"
         id="rect4258" />
      <rect
         x="1.5875"
         y="1.0583"
         width="1.5875"
         height="14.287"
         fill="url(#linearGradient6309)"
         opacity="1"
         id="rect4260" />
      <rect
         x="13.758"
         y="15.346"
         width="1.5875"
         height="1.5875"
         fill="url(#radialGradient6317)"
         opacity="1"
         id="rect4262" />
      <rect
         x="1.5875"
         y="15.346"
         width="1.5875"
         height="1.5875"
         fill="url(#radialGradient6311)"
         opacity="1"
         id="rect4264" />
    </g>
    <path
       d="m2.9572 0.26458c-0.29316 0-0.52916 0.23601-0.52916 0.52916v14.816c0 0.29316 0.23601 0.52916 0.52916 0.52916h11.112c0.29316 0 0.52916-0.23601 0.52916-0.52916v-10.319c0-0.26458-0.16113-0.69029-0.52916-1.0583l-3.4395-3.4395c-0.35403-0.44799-0.79374-0.52916-1.0583-0.52916z"
       fill="url(#linearGradient4553)"
       stroke-width=".26458"
       id="path4268" />
    <path
       d="m12.217 4.2332v4.2332h2.3812v-3.1749c0-0.034876-0.0069-0.079523-0.01034-0.11989-0.03935-0.26272-0.20199-0.6216-0.51882-0.93843z"
       fill="url(#radialGradient6129)"
       opacity=".05"
       id="path4270" />
    <rect
       x="8.7676"
       y="-.54211"
       width="6.6358"
       height="6.6348"
       fill="none"
       id="rect4272" />
    <g
       id="g4292">
      <rect
         x="6.3966"
         y="4.2333"
         width="4.2333"
         height="4.2333"
         ry="0"
         fill="url(#radialGradient6017)"
         opacity=".05"
         id="rect4274" />
      <path
         d="m6.3966 0.26458v2.3812h4.2332v-1.852c-0.35403-0.44799-0.79373-0.52916-1.0583-0.52916z"
         fill="url(#radialGradient6042)"
         opacity=".05"
         id="path4276" />
      <rect
         x="6.3966"
         y="2.6458"
         width="4.2333"
         height="1.5875"
         ry="0"
         fill="url(#linearGradient6093)"
         opacity=".05"
         id="rect4278" />
      <rect
         x="7.7195"
         y="2.6458"
         width="2.9104"
         height="1.5875"
         ry="0"
         fill="url(#linearGradient6073)"
         opacity=".2"
         id="rect4280" />
      <rect
         x="7.7195"
         y="4.2333"
         width="2.9104"
         height="2.9104"
         ry="0"
         fill="url(#radialGradient6083)"
         opacity=".2"
         id="rect4282" />
      <path
         d="m7.7195 0.26458v2.3812h2.9104v-1.852c-0.14016-0.17736-0.29358-0.29558-0.44441-0.37568l-0.6139-0.15348z"
         fill="url(#radialGradient6089)"
         opacity=".2"
         id="path4284" />
      <rect
         transform="rotate(-90)"
         x="-8.4665"
         y="10.63"
         width="4.2333"
         height="1.5875"
         ry="0"
         fill="url(#linearGradient6121)"
         opacity=".05"
         id="rect4286" />
      <rect
         transform="rotate(-90)"
         x="-7.1436"
         y="10.63"
         width="2.9104"
         height="1.5875"
         ry="0"
         fill="url(#linearGradient6123)"
         opacity=".2"
         id="rect4288" />
      <path
         d="m12.217 4.2332v2.9104h2.3812v-1.852l-0.11627-0.4656c-0.085847-0.19266-0.2205-0.40033-0.41289-0.59272z"
         fill="url(#radialGradient6131)"
         opacity=".2"
         id="path4290" />
    </g>
    <path
       d="m10.101 0.37542v3.8561c0 0.29315 0.23601 0.52917 0.52917 0.52917h3.822c-0.08627-0.1743-0.21103-0.35779-0.3824-0.52917l-3.4396-3.4396c-0.16657-0.21078-0.35183-0.33839-0.52917-0.41652z"
       fill="url(#linearGradient4561)"
       id="path4294" />
  </g>
  <g
     transform="matrix(0.03667529,0,0,0.03667529,2.6257422,3.8692285)"
     style="display:inline;enable-background:new"
     id="g13987">
    <path
       style="color:#000000;display:inline;overflow:visible;visibility:visible;opacity:0.1;fill:#000000;fill-opacity:1;fill-rule:nonzero;stroke:none;stroke-width:2;marker:none;filter:url(#filter4346);enable-background:accumulate"
       d="M 189.84323,74 C 119.24979,74 111.65402,81.250835 112,151.98706 V 298 444.01294 C 111.65402,514.74917 119.24979,522 189.84323,522 H 386.15677 C 456.75021,522 462.16345,514.72616 464,444.01294 V 298 151.98706 C 464,81.249993 456.75021,74 386.15677,74 Z"
       id="rect4158-9"
       inkscape:connector-curvature="0"
       sodipodi:nodetypes="scccssscsss"
       transform="matrix(0.5,0,0,0.5,8.0000021,8.0000003)" />
    <path
       sodipodi:nodetypes="scccssscsss"
       inkscape:connector-curvature="0"
       id="path4350"
       d="M 189.84323,74 C 119.24979,74 111.65402,81.250835 112,151.98706 V 298 444.01294 C 111.65402,514.74917 119.24979,522 189.84323,522 H 386.15677 C 456.75021,522 464,514.75001 464,444.01294 V 298 151.98706 C 464,81.249993 456.75021,74 386.15677,74 Z"
       style="color:#000000;display:inline;overflow:visible;visibility:visible;opacity:0.3;fill:url(#linearGradient4358);fill-opacity:1;fill-rule:nonzero;stroke:none;stroke-width:2;marker:none;filter:url(#filter4380);enable-background:accumulate"
       transform="matrix(0.5,0,0,0.5,8.0000021,8.0000003)" />
    <rect
       style="display:inline;opacity:1;fill:#999999;fill-opacity:1;stroke-width:1.13389;enable-background:new"
       id="rect178-7"
       width="12.169323"
       height="35.943119"
       x="-249.18341"
       y="-250.82988"
       transform="rotate(-179.73031,-4.4383733e-6,-2.5363673e-8)" />
    <rect
       style="display:inline;opacity:1;fill:#e6e6e6;fill-opacity:1;stroke-width:0.912046;enable-background:new"
       id="rect180-92"
       width="16.130184"
       height="19.945652"
       x="-261.58798"
       y="-243.11703"
       transform="matrix(-0.99999424,-0.00339518,0.00652554,-0.99997871,1.9010217e-6,1.2141973e-7)" />
    <rect
       style="display:inline;opacity:1;fill:#999999;fill-opacity:1;stroke-width:1.13389;enable-background:new"
       id="rect178-0-2"
       width="12.169311"
       height="35.943115"
       x="-248.93866"
       y="-198.83046"
       transform="rotate(-179.73031,-4.4383733e-6,-2.5363673e-8)" />
    <rect
       style="display:inline;opacity:1;fill:#e6e6e6;fill-opacity:1;stroke-width:0.912046;enable-background:new"
       id="rect180-9-3"
       width="16.130249"
       height="19.945662"
       x="-261.24866"
       y="-191.11708"
       transform="matrix(-0.99999424,-0.00339518,0.00652554,-0.99997871,1.9010217e-6,1.2141973e-7)" />
    <rect
       style="display:inline;opacity:1;fill:#999999;fill-opacity:1;stroke-width:1.13389;enable-background:new"
       id="rect178-6-5"
       width="12.169314"
       height="35.943111"
       x="-248.69389"
       y="-146.83104"
       transform="rotate(-179.73031,-4.4383733e-6,-2.5363673e-8)" />
    <rect
       style="display:inline;opacity:1;fill:#e6e6e6;fill-opacity:1;stroke-width:0.912046;enable-background:new"
       id="rect180-0-9"
       width="16.130245"
       height="19.945662"
       x="-260.90933"
       y="-139.11713"
       transform="matrix(-0.99999424,-0.00339518,0.00652554,-0.99997871,1.9010217e-6,1.2141973e-7)" />
    <rect
       style="display:inline;opacity:1;fill:#999999;fill-opacity:1;stroke-width:1.1339;enable-background:new"
       id="rect178-2-2"
       width="12.037529"
       height="35.980885"
       x="-248.65953"
       y="-95.205467"
       transform="matrix(-0.99999487,-0.00320442,0.00691398,-0.9999761,1.9010217e-6,1.2141973e-7)" />
    <rect
       style="display:inline;opacity:1;fill:#e6e6e6;fill-opacity:1;stroke-width:0.890946;enable-background:new"
       id="rect180-6-8"
       width="15.999651"
       height="19.943333"
       x="-260.54388"
       y="-87.074699"
       transform="matrix(-0.99999367,-0.00355789,0.00622712,-0.99998061,1.9010217e-6,1.2141973e-7)" />
    <rect
       style="display:inline;opacity:0.22;fill:#999999;fill-opacity:1;stroke-width:0.597614;enable-background:new"
       id="rect178-3-7"
       width="4"
       height="20"
       x="256"
       y="68.00013"
       transform="translate(1.9010217e-6)" />
    <rect
       style="display:inline;opacity:0.22;fill:#999999;fill-opacity:1;stroke-width:0.597614;enable-background:new"
       id="rect178-3-3-3"
       width="4"
       height="20"
       x="256"
       y="120"
       transform="translate(1.9010217e-6)" />
    <rect
       style="display:inline;opacity:0.22;fill:#999999;fill-opacity:1;stroke-width:0.597614;enable-background:new"
       id="rect178-3-6-6"
       width="4.2529297"
       height="20.055237"
       x="256"
       y="172"
       transform="translate(1.9010217e-6)" />
    <rect
       style="display:inline;opacity:0.22;fill:#999999;fill-opacity:1;stroke-width:0.597614;enable-background:new"
       id="rect178-3-1-1"
       width="4"
       height="20.000137"
       x="256"
       y="224"
       transform="translate(1.9010217e-6)" />
    <rect
       style="display:inline;opacity:1;fill:#999999;fill-opacity:1;stroke-width:1.13389;enable-background:new"
       id="rect178-7-3"
       width="12.169323"
       height="35.943119"
       x="54.896629"
       y="-252.26112"
       transform="matrix(0.99998892,-0.00470696,-0.00470696,-0.99998892,1.9010217e-6,1.2141973e-7)" />
    <rect
       style="display:inline;opacity:1;fill:#e6e6e6;fill-opacity:1;stroke-width:0.912046;enable-background:new"
       id="rect180-92-6"
       width="16.130184"
       height="19.945652"
       x="42.490589"
       y="-244.14948"
       transform="matrix(0.99999424,-0.00339518,-0.00652554,-0.99997871,1.9010217e-6,1.2141973e-7)" />
    <rect
       style="display:inline;opacity:1;fill:#999999;fill-opacity:1;stroke-width:1.13389;enable-background:new"
       id="rect178-0-2-7"
       width="12.169311"
       height="35.943115"
       x="55.14135"
       y="-200.2617"
       transform="matrix(0.99998892,-0.00470696,-0.00470696,-0.99998892,1.9010217e-6,1.2141973e-7)" />
    <rect
       style="display:inline;opacity:1;fill:#e6e6e6;fill-opacity:1;stroke-width:0.912046;enable-background:new"
       id="rect180-9-3-5"
       width="16.130249"
       height="19.945662"
       x="42.829914"
       y="-192.14952"
       transform="matrix(0.99999424,-0.00339518,-0.00652554,-0.99997871,1.9010217e-6,1.2141973e-7)" />
    <rect
       style="display:inline;opacity:1;fill:#999999;fill-opacity:1;stroke-width:1.13389;enable-background:new"
       id="rect178-6-5-3"
       width="12.169314"
       height="35.943111"
       x="55.386124"
       y="-148.26228"
       transform="matrix(0.99998892,-0.00470696,-0.00470696,-0.99998892,1.9010217e-6,1.2141973e-7)" />
    <rect
       style="display:inline;opacity:1;fill:#e6e6e6;fill-opacity:1;stroke-width:0.912046;enable-background:new"
       id="rect180-0-9-5"
       width="16.130245"
       height="19.945662"
       x="43.169239"
       y="-140.14957"
       transform="matrix(0.99999424,-0.00339518,-0.00652554,-0.99997871,1.9010217e-6,1.2141973e-7)" />
    <rect
       style="display:inline;opacity:1;fill:#999999;fill-opacity:1;stroke-width:1.1339;enable-background:new"
       id="rect178-2-2-6"
       width="12.037529"
       height="35.980885"
       x="55.418713"
       y="-96.179901"
       transform="matrix(0.99999487,-0.00320442,-0.00691398,-0.9999761,1.9010217e-6,1.2141973e-7)" />
    <rect
       style="display:inline;opacity:1;fill:#e6e6e6;fill-opacity:1;stroke-width:0.890946;enable-background:new"
       id="rect180-6-8-2"
       width="15.999651"
       height="19.943333"
       x="43.534935"
       y="-88.156364"
       transform="matrix(0.99999367,-0.00355789,-0.00622712,-0.99998061,1.9010217e-6,1.2141973e-7)" />
    <rect
       style="display:inline;opacity:0.22;fill:#999999;fill-opacity:1;stroke-width:0.597614;enable-background:new"
       id="rect178-3-7-9"
       width="4"
       height="20"
       x="-48.08374"
       y="68.00013"
       transform="matrix(-1,0,0,1,1.9010217e-6,1.2141973e-7)" />
    <rect
       style="display:inline;opacity:0.22;fill:#999999;fill-opacity:1;stroke-width:0.597614;enable-background:new"
       id="rect178-3-3-3-1"
       width="4"
       height="20"
       x="-48.08374"
       y="120"
       transform="matrix(-1,0,0,1,1.9010217e-6,1.2141973e-7)" />
    <rect
       style="display:inline;opacity:0.22;fill:#999999;fill-opacity:1;stroke-width:0.597614;enable-background:new"
       id="rect178-3-6-6-2"
       width="4.2529297"
       height="20.055237"
       x="-48.08374"
       y="172"
       transform="matrix(-1,0,0,1,1.9010217e-6,1.2141973e-7)" />
    <rect
       style="display:inline;opacity:0.22;fill:#999999;fill-opacity:1;stroke-width:0.597614;enable-background:new"
       id="rect178-3-1-1-7"
       width="4"
       height="20.000137"
       x="-48.08374"
       y="224"
       transform="matrix(-1,0,0,1,1.9010217e-6,1.2141973e-7)" />
    <path
       style="color:#000000;display:inline;overflow:visible;visibility:visible;fill:url(#linearGradient4226);fill-opacity:1;fill-rule:nonzero;stroke:none;stroke-width:1;marker:none;enable-background:accumulate"
       d="m 201.07298,44 c 35.29673,0 39.09461,3.625418 38.92162,38.99353 V 156 229.00647 C 240.16759,264.37459 236.36971,268 201.07298,268 H 102.91622 C 67.619504,268 63.994604,264.375 63.994604,229.00647 V 156 82.99353 C 63.994604,47.624997 67.619504,44 102.91622,44 Z"
       id="rect4158"
       inkscape:connector-curvature="0"
       sodipodi:nodetypes="scccssscsss"
       transform="translate(1.9010217e-6)" />
    <rect
       style="display:inline;opacity:1;fill:none;fill-opacity:1;stroke:#999999;stroke-width:4;stroke-linecap:round;stroke-linejoin:round;stroke-miterlimit:4;stroke-dasharray:none;stroke-dashoffset:0;stroke-opacity:1;enable-background:new"
       id="rect942"
       width="16"
       height="28"
       x="102.0005"
       y="82"
       rx="2"
       ry="2"
       transform="translate(1.9010217e-6)" />
    <rect
       ry="2"
       rx="2"
       y="82"
       x="158.00049"
       height="28"
       width="16"
       id="rect946"
       style="display:inline;opacity:1;fill:none;fill-opacity:1;stroke:#999999;stroke-width:4;stroke-linecap:round;stroke-linejoin:round;stroke-miterlimit:4;stroke-dasharray:none;stroke-dashoffset:0;stroke-opacity:1;enable-background:new"
       transform="translate(1.9010217e-6)" />
    <rect
       style="display:inline;opacity:1;fill:none;fill-opacity:1;stroke:#999999;stroke-width:4;stroke-linecap:round;stroke-linejoin:round;stroke-miterlimit:4;stroke-dasharray:none;stroke-dashoffset:0;stroke-opacity:1;enable-background:new"
       id="rect948"
       width="16"
       height="28"
       x="186.00049"
       y="82"
       rx="2"
       ry="2"
       transform="translate(1.9010217e-6)" />
    <path
       style="display:inline;fill:none;fill-rule:evenodd;stroke:#999999;stroke-width:4;stroke-linecap:round;stroke-linejoin:miter;stroke-miterlimit:4;stroke-dasharray:none;stroke-opacity:1;enable-background:new"
       d="m 130.00048,81.999999 h 8 V 110"
       id="path952"
       inkscape:connector-curvature="0"
       sodipodi:nodetypes="ccc"
       transform="translate(1.9010217e-6)" />
    <path
       style="display:inline;fill:none;fill-rule:evenodd;stroke:#999999;stroke-width:4;stroke-linecap:round;stroke-linejoin:round;stroke-miterlimit:4;stroke-dasharray:none;stroke-opacity:1;enable-background:new"
       d="m 130.00048,109.9998 h 16 V 102"
       id="path954"
       inkscape:connector-curvature="0"
       sodipodi:nodetypes="ccc"
       transform="translate(1.9010217e-6)" />
    <rect
       ry="2"
       rx="2"
       y="122"
       x="102.0005"
       height="28"
       width="16"
       id="rect956"
       style="display:inline;opacity:1;fill:none;fill-opacity:1;stroke:#999999;stroke-width:4;stroke-linecap:round;stroke-linejoin:round;stroke-miterlimit:4;stroke-dasharray:none;stroke-dashoffset:0;stroke-opacity:1;enable-background:new"
       transform="translate(1.9010217e-6)" />
    <path
       sodipodi:nodetypes="ccc"
       inkscape:connector-curvature="0"
       id="path962"
       d="m 158.00048,122 h 8 v 28"
       style="display:inline;fill:none;fill-rule:evenodd;stroke:#999999;stroke-width:4;stroke-linecap:round;stroke-linejoin:miter;stroke-miterlimit:4;stroke-dasharray:none;stroke-opacity:1;enable-background:new"
       transform="translate(1.9010217e-6)" />
    <path
       sodipodi:nodetypes="ccc"
       inkscape:connector-curvature="0"
       id="path965"
       d="m 158.00048,149.9998 h 16 V 142"
       style="display:inline;fill:none;fill-rule:evenodd;stroke:#999999;stroke-width:4;stroke-linecap:round;stroke-linejoin:round;stroke-miterlimit:4;stroke-dasharray:none;stroke-opacity:1;enable-background:new"
       transform="translate(1.9010217e-6)" />
    <rect
       style="display:inline;opacity:1;fill:none;fill-opacity:1;stroke:#999999;stroke-width:4;stroke-linecap:round;stroke-linejoin:round;stroke-miterlimit:4;stroke-dasharray:none;stroke-dashoffset:0;stroke-opacity:1;enable-background:new"
       id="rect958"
       width="16"
       height="28"
       x="130.00049"
       y="122"
       rx="2"
       ry="2"
       transform="translate(1.9010217e-6)" />
    <rect
       ry="2"
       rx="2"
       y="122"
       x="186.00049"
       height="28"
       width="16"
       id="rect960"
       style="display:inline;opacity:1;fill:none;fill-opacity:1;stroke:#999999;stroke-width:4;stroke-linecap:round;stroke-linejoin:round;stroke-miterlimit:4;stroke-dasharray:none;stroke-dashoffset:0;stroke-opacity:1;enable-background:new"
       transform="translate(1.9010217e-6)" />
    <rect
       ry="2"
       rx="2"
       y="162"
       x="130.00049"
       height="28"
       width="16"
       id="rect969"
       style="display:inline;opacity:1;fill:none;fill-opacity:1;stroke:#999999;stroke-width:4;stroke-linecap:round;stroke-linejoin:round;stroke-miterlimit:4;stroke-dasharray:none;stroke-dashoffset:0;stroke-opacity:1;enable-background:new"
       transform="translate(1.9010217e-6)" />
    <rect
       style="display:inline;opacity:1;fill:none;fill-opacity:1;stroke:#999999;stroke-width:4;stroke-linecap:round;stroke-linejoin:round;stroke-miterlimit:4;stroke-dasharray:none;stroke-dashoffset:0;stroke-opacity:1;enable-background:new"
       id="rect971"
       width="16"
       height="28"
       x="158.00049"
       y="162"
       rx="2"
       ry="2"
       transform="translate(1.9010217e-6)" />
    <rect
       ry="2"
       rx="2"
       y="202"
       x="102.0005"
       height="28"
       width="16"
       id="rect978"
       style="display:inline;opacity:1;fill:none;fill-opacity:1;stroke:#999999;stroke-width:4;stroke-linecap:round;stroke-linejoin:round;stroke-miterlimit:4;stroke-dasharray:none;stroke-dashoffset:0;stroke-opacity:1;enable-background:new"
       transform="translate(1.9010217e-6)" />
    <rect
       ry="2"
       rx="2"
       y="202"
       x="186.00049"
       height="28"
       width="16"
       id="rect982"
       style="display:inline;opacity:1;fill:none;fill-opacity:1;stroke:#999999;stroke-width:4;stroke-linecap:round;stroke-linejoin:round;stroke-miterlimit:4;stroke-dasharray:none;stroke-dashoffset:0;stroke-opacity:1;enable-background:new"
       transform="translate(1.9010217e-6)" />
    <path
       sodipodi:nodetypes="ccc"
       inkscape:connector-curvature="0"
       id="path984"
       d="m 130.00048,202 h 8 v 28"
       style="display:inline;fill:none;fill-rule:evenodd;stroke:#999999;stroke-width:4;stroke-linecap:round;stroke-linejoin:miter;stroke-miterlimit:4;stroke-dasharray:none;stroke-opacity:1;enable-background:new"
       transform="translate(1.9010217e-6)" />
    <path
       sodipodi:nodetypes="ccc"
       inkscape:connector-curvature="0"
       id="path986"
       d="m 130.00048,229.9998 h 16 V 222"
       style="display:inline;fill:none;fill-rule:evenodd;stroke:#999999;stroke-width:4;stroke-linecap:round;stroke-linejoin:round;stroke-miterlimit:4;stroke-dasharray:none;stroke-opacity:1;enable-background:new"
       transform="translate(1.9010217e-6)" />
    <path
       sodipodi:nodetypes="ccc"
       inkscape:connector-curvature="0"
       id="path992"
       d="m 102.00048,162 h 8 v 28"
       style="display:inline;fill:none;fill-rule:evenodd;stroke:#999999;stroke-width:4;stroke-linecap:round;stroke-linejoin:miter;stroke-miterlimit:4;stroke-dasharray:none;stroke-opacity:1;enable-background:new"
       transform="translate(1.9010217e-6)" />
    <path
       sodipodi:nodetypes="ccc"
       inkscape:connector-curvature="0"
       id="path994"
       d="m 102.00048,189.9998 h 16 V 182"
       style="display:inline;fill:none;fill-rule:evenodd;stroke:#999999;stroke-width:4;stroke-linecap:round;stroke-linejoin:round;stroke-miterlimit:4;stroke-dasharray:none;stroke-opacity:1;enable-background:new"
       transform="translate(1.9010217e-6)" />
    <path
       style="display:inline;fill:none;fill-rule:evenodd;stroke:#999999;stroke-width:4;stroke-linecap:round;stroke-linejoin:miter;stroke-miterlimit:4;stroke-dasharray:none;stroke-opacity:1;enable-background:new"
       d="m 186.00048,162 h 8 v 28"
       id="path998"
       inkscape:connector-curvature="0"
       sodipodi:nodetypes="ccc"
       transform="translate(1.9010217e-6)" />
    <path
       style="display:inline;fill:none;fill-rule:evenodd;stroke:#999999;stroke-width:4;stroke-linecap:round;stroke-linejoin:round;stroke-miterlimit:4;stroke-dasharray:none;stroke-opacity:1;enable-background:new"
       d="m 186.00048,189.9998 h 15.99999 V 182"
       id="path1000"
       inkscape:connector-curvature="0"
       sodipodi:nodetypes="ccc"
       transform="translate(1.9010217e-6)" />
    <path
       style="display:inline;fill:none;fill-rule:evenodd;stroke:#999999;stroke-width:4;stroke-linecap:round;stroke-linejoin:miter;stroke-miterlimit:4;stroke-dasharray:none;stroke-opacity:1;enable-background:new"
       d="m 158.00048,202 h 8 v 28"
       id="path1008"
       inkscape:connector-curvature="0"
       sodipodi:nodetypes="ccc"
       transform="translate(1.9010217e-6)" />
    <path
       style="display:inline;fill:none;fill-rule:evenodd;stroke:#999999;stroke-width:4;stroke-linecap:round;stroke-linejoin:round;stroke-miterlimit:4;stroke-dasharray:none;stroke-opacity:1;enable-background:new"
       d="m 158.00048,229.9998 h 16 V 222"
       id="path1010"
       inkscape:connector-curvature="0"
       sodipodi:nodetypes="ccc"
       transform="translate(1.9010217e-6)" />
    <path
       style="color:#000000;display:inline;overflow:visible;visibility:visible;opacity:0.08;fill:#ffffff;fill-opacity:1;fill-rule:nonzero;stroke:none;stroke-width:1;marker:none;enable-background:accumulate"
       d="m 152,44 v 224 h 49.07812 C 236.37484,268 239.08173,264.36345 240,229.00683 V 156 82.993165 C 240,47.624631 236.37484,44 201.07812,44 Z"
       id="path4231"
       inkscape:connector-curvature="0"
       sodipodi:nodetypes="ccsscssc"
       transform="translate(1.9010217e-6)" />
    <path
       inkscape:connector-curvature="0"
       style="color:#000000;display:inline;overflow:visible;visibility:visible;opacity:0.08;fill:#ffffff;fill-opacity:1;fill-rule:nonzero;stroke:none;stroke-width:1;marker:none;enable-background:accumulate"
       d="m 64,156 v 73.00683 C 63.82701,264.37495 67.625155,268 102.92188,268 h 98.15624 C 236.37484,268 239.08173,264.36345 240,229.00683 V 156 Z"
       id="path4255"
       sodipodi:nodetypes="ccssscc"
       transform="translate(1.9010217e-6)" />
    <path
       style="color:#000000;display:inline;overflow:visible;visibility:visible;opacity:0.08;fill:#ffffff;fill-opacity:1;fill-rule:nonzero;stroke:none;stroke-width:8;stroke-linecap:butt;stroke-linejoin:miter;stroke-miterlimit:4;stroke-dasharray:none;stroke-dashoffset:0;stroke-opacity:1;marker:none;enable-background:accumulate"
       d="m 180,268 60,-60 v 22.48388 C 239.94765,264.47969 236.19732,268 201.8259,268 Z"
       id="path4254"
       inkscape:connector-curvature="0"
       sodipodi:nodetypes="cccsc"
       transform="translate(1.9010217e-6)" />
    <path
       style="color:#000000;display:inline;overflow:visible;visibility:visible;opacity:0.2;fill:#000000;fill-opacity:1;fill-rule:nonzero;stroke:none;stroke-width:1;marker:none;enable-background:accumulate"
       d="m 64,227.00586 v 2 C 63.82701,264.37398 67.62515,268 102.92188,268 h 98.15624 c 35.29672,0 38.00361,-3.63752 38.92188,-38.99414 v -2 C 239.08173,262.36248 236.37484,266 201.07812,266 H 102.92188 C 67.62515,266 63.82701,262.37398 64,227.00586 Z"
       id="path945"
       inkscape:connector-curvature="0" />
    <path
       style="color:#000000;display:inline;overflow:visible;visibility:visible;opacity:0.4;fill:#ffffff;fill-opacity:1;fill-rule:nonzero;stroke:none;stroke-width:1;marker:none;enable-background:accumulate"
       d="M 102.92188,44 C 67.625152,44 63.82701,47.626029 64,82.994141 v 2 C 63.82701,49.626029 67.625152,46 102.92188,46 h 98.15624 C 236.37485,46 240,49.625608 240,84.994141 v -2 C 240,47.625608 236.37485,44 201.07812,44 Z"
       id="path931"
       inkscape:connector-curvature="0" />
  </g>
</svg>
