<?xml version="1.0" encoding="UTF-8" standalone="no"?>
<svg
   xmlns:dc="http://purl.org/dc/elements/1.1/"
   xmlns:cc="http://creativecommons.org/ns#"
   xmlns:rdf="http://www.w3.org/1999/02/22-rdf-syntax-ns#"
   xmlns:svg="http://www.w3.org/2000/svg"
   xmlns="http://www.w3.org/2000/svg"
   xmlns:xlink="http://www.w3.org/1999/xlink"
   xmlns:sodipodi="http://sodipodi.sourceforge.net/DTD/sodipodi-0.dtd"
   xmlns:inkscape="http://www.inkscape.org/namespaces/inkscape"
   inkscape:version="1.0 (1.0+r73+1)"
   sodipodi:docname="text-x-makefile.svg"
   id="svg22339"
   version="1.1"
   height="64"
   width="64">
  <metadata
     id="metadata22343">
    <rdf:RDF>
      <cc:Work
         rdf:about="">
        <dc:format>image/svg+xml</dc:format>
        <dc:type
           rdf:resource="http://purl.org/dc/dcmitype/StillImage" />
        <dc:title></dc:title>
      </cc:Work>
    </rdf:RDF>
  </metadata>
  <sodipodi:namedview
     inkscape:current-layer="svg22339"
     inkscape:window-maximized="1"
     inkscape:window-y="28"
     inkscape:window-x="0"
     inkscape:cy="36.966831"
     inkscape:cx="4.6336256"
     inkscape:zoom="6.1540387"
     showgrid="false"
     id="namedview22341"
     inkscape:window-height="708"
     inkscape:window-width="1366"
     inkscape:pageshadow="2"
     inkscape:pageopacity="0"
     guidetolerance="10"
     gridtolerance="10"
     objecttolerance="10"
     borderopacity="1"
     bordercolor="#666666"
     pagecolor="#ffffff" />
  <defs
     id="defs22249">
    <linearGradient
       xlink:href="#linearGradient6067"
       gradientUnits="userSpaceOnUse"
       y2="16.933"
       y1="15.346"
       x2="7.9373"
       x1="7.9373"
       id="linearGradient6191" />
    <linearGradient
       id="linearGradient6067">
      <stop
         id="stop22205"
         offset="0" />
      <stop
         id="stop22207"
         offset="1"
         stop-opacity="0" />
    </linearGradient>
    <radialGradient
       xlink:href="#linearGradient6067"
       gradientUnits="userSpaceOnUse"
       gradientTransform="matrix(1.696,0,0,1.0731,-24.361,-0.29238)"
       r="3.7275"
       cy="4"
       cx="35"
       id="radialGradient6247" />
    <linearGradient
       xlink:href="#linearGradient6067"
       gradientUnits="userSpaceOnUse"
       y2="8.2517"
       y1="12"
       x2="46.748"
       x1="43"
       id="linearGradient6263" />
    <radialGradient
       xlink:href="#linearGradient6067"
       gradientUnits="userSpaceOnUse"
       gradientTransform="matrix(0.96042,0,0,1.3331,2.0581,-7.3283)"
       r="5.2061"
       cy="22"
       cx="52"
       id="radialGradient6255" />
    <linearGradient
       xlink:href="#linearGradient6067"
       gradientUnits="userSpaceOnUse"
       y1="1.0583"
       x2="5.8207"
       x1="5.8207"
       id="linearGradient6239" />
    <radialGradient
       xlink:href="#linearGradient6067"
       gradientUnits="userSpaceOnUse"
       gradientTransform="matrix(-2.1078e-8,-1.3333,1.6667,-2.6348e-8,0.97012,5.2916)"
       r=".79373"
       cy="1.3229"
       cx="3.1749"
       id="radialGradient6231" />
    <linearGradient
       xlink:href="#linearGradient6067"
       gradientUnits="userSpaceOnUse"
       y2="10.583"
       y1="10.583"
       x2="15.081"
       x1="13.758"
       id="linearGradient6215" />
    <linearGradient
       xlink:href="#linearGradient6067"
       gradientUnits="userSpaceOnUse"
       y2="8.4665"
       y1="8.4665"
       x2="1.852"
       x1="3.1749"
       id="linearGradient6223" />
    <radialGradient
       xlink:href="#linearGradient6067"
       gradientUnits="userSpaceOnUse"
       gradientTransform="matrix(5.1718e-7,2,-1.6667,4.3098e-7,39.334,-12.171)"
       r=".79373"
       cy="15.346"
       cx="13.758"
       id="radialGradient6207" />
    <radialGradient
       xlink:href="#linearGradient6067"
       gradientUnits="userSpaceOnUse"
       gradientTransform="matrix(-1.6667,-1.37e-6,1.644e-6,-2,8.4665,46.037)"
       r=".79373"
       cy="15.346"
       cx="3.1749"
       id="radialGradient6199" />
    <linearGradient
       xlink:href="#linearGradient6067"
       gradientUnits="userSpaceOnUse"
       y2="16.668"
       y1="15.346"
       x2="7.9373"
       x1="7.9373"
       id="linearGradient6315" />
    <radialGradient
       xlink:href="#linearGradient6067"
       gradientUnits="userSpaceOnUse"
       gradientTransform="matrix(1.6115,-1.9122e-7,9.5496e-8,0.80482,-21.403,0.78072)"
       r="3.7275"
       cy="4"
       cx="35"
       id="radialGradient6331" />
    <linearGradient
       xlink:href="#linearGradient6067"
       gradientUnits="userSpaceOnUse"
       y2="8.9965"
       y1="12"
       x2="46.004"
       x1="43"
       id="linearGradient6333" />
    <radialGradient
       xlink:href="#linearGradient6067"
       gradientUnits="userSpaceOnUse"
       gradientTransform="matrix(0.76834,-9.6042e-8,1.534e-7,1.2272,12.047,-4.9986)"
       r="5.2061"
       cy="22"
       cx="52"
       id="radialGradient6321" />
    <linearGradient
       xlink:href="#linearGradient6067"
       gradientUnits="userSpaceOnUse"
       y2=".26458"
       y1="1.0583"
       x2="5.8207"
       x1="5.8207"
       id="linearGradient6335" />
    <radialGradient
       xlink:href="#linearGradient6067"
       gradientUnits="userSpaceOnUse"
       gradientTransform="matrix(-7.442e-8,-1,1.3333,-9.9226e-8,1.4111,4.2333)"
       r=".79373"
       cy="1.3229"
       cx="3.1749"
       id="radialGradient6337" />
    <linearGradient
       xlink:href="#linearGradient6067"
       gradientUnits="userSpaceOnUse"
       y2="10.583"
       y1="10.583"
       x2="14.816"
       x1="13.758"
       id="linearGradient6319" />
    <linearGradient
       xlink:href="#linearGradient6067"
       gradientUnits="userSpaceOnUse"
       y2="8.4665"
       y1="8.4665"
       x2="2.1166"
       x1="3.1749"
       id="linearGradient6309" />
    <radialGradient
       xlink:href="#linearGradient6067"
       gradientUnits="userSpaceOnUse"
       gradientTransform="matrix(0,1.6667,-1.3333,0,34.219,-7.5846)"
       r=".79373"
       cy="15.346"
       cx="13.758"
       id="radialGradient6317" />
    <radialGradient
       xlink:href="#linearGradient6067"
       gradientUnits="userSpaceOnUse"
       gradientTransform="matrix(-1.3333,0,0,-1.6667,7.4082,40.921)"
       r=".79373"
       cy="15.346"
       cx="3.1749"
       id="radialGradient6311" />
    <linearGradient
       gradientUnits="userSpaceOnUse"
       gradientTransform="matrix(1.0000066,0,0,1.0000066,-0.02109433,-1.0000062)"
       y2="60"
       y1="9"
       x2="11"
       x1="45"
       id="linearGradient4553">
      <stop
         id="stop22229"
         offset="0"
         stop-color="#ededed" />
      <stop
         id="stop22231"
         offset="1"
         stop-color="#fcfcfc" />
    </linearGradient>
    <radialGradient
       xlink:href="#linearGradient6067"
       gradientUnits="userSpaceOnUse"
       gradientTransform="matrix(1.5000099,0,0,-2.0000131,-14.021001,39.999507)"
       r="8"
       cy="12"
       cx="40"
       id="radialGradient6129" />
    <radialGradient
       xlink:href="#linearGradient6067"
       gradientUnits="userSpaceOnUse"
       gradientTransform="matrix(-2,3.1236e-7,-3.1236e-7,-2,31.796,12.7)"
       r="2.1166"
       cy="4.2333"
       cx="10.583"
       id="radialGradient6017" />
    <radialGradient
       xlink:href="#linearGradient6067"
       gradientUnits="userSpaceOnUse"
       gradientTransform="matrix(0,-0.39687,0.52916,0,4.28,18.52)"
       r="8"
       cy="12"
       cx="40"
       id="radialGradient6042" />
    <linearGradient
       xlink:href="#linearGradient6067"
       gradientUnits="userSpaceOnUse"
       gradientTransform="matrix(1,0,0,0.66667,0.046771,1.4111)"
       y2="3.1749"
       y1="3.1749"
       x2="6.3499"
       x1="10.583"
       id="linearGradient6093" />
    <linearGradient
       xlink:href="#linearGradient6067"
       gradientUnits="userSpaceOnUse"
       gradientTransform="matrix(1,0,0,0.66667,0.046771,1.4111)"
       y2="3.0426"
       y1="3.0426"
       x2="8.7311"
       x1="10.583"
       id="linearGradient6073" />
    <radialGradient
       xlink:href="#linearGradient6067"
       gradientUnits="userSpaceOnUse"
       gradientTransform="matrix(-0.875,-1.6564e-7,1.6631e-7,-0.87849,19.89,7.9521)"
       r="2.1166"
       cy="4.2333"
       cx="10.583"
       id="radialGradient6083" />
    <radialGradient
       xlink:href="#linearGradient6067"
       gradientUnits="userSpaceOnUse"
       gradientTransform="matrix(0,-0.34601,0.23278,0,7.8365,16.486)"
       r="8"
       cy="12"
       cx="40"
       id="radialGradient6089" />
    <linearGradient
       xlink:href="#linearGradient6067"
       gradientUnits="userSpaceOnUse"
       gradientTransform="matrix(1,0,0,0.66667,-14.816,9.3952)"
       y2="3.1749"
       y1="3.1749"
       x2="6.3499"
       x1="10.583"
       id="linearGradient6121" />
    <linearGradient
       xlink:href="#linearGradient6067"
       gradientUnits="userSpaceOnUse"
       gradientTransform="matrix(1,0,0,0.66667,-14.816,9.3952)"
       y2="3.0426"
       y1="3.0426"
       x2="8.7237"
       x1="10.583"
       id="linearGradient6123" />
    <radialGradient
       xlink:href="#linearGradient6067"
       gradientUnits="userSpaceOnUse"
       gradientTransform="matrix(0.3793,0,0,-0.23243,-2.9547,7.0224)"
       r="8"
       cy="12"
       cx="40"
       id="radialGradient6131" />
    <linearGradient
       gradientUnits="userSpaceOnUse"
       gradientTransform="matrix(1.0000066,0,0,1.0000066,-0.02109433,-1.0000062)"
       y2="11"
       y1="17"
       x2="46"
       x1="40"
       id="linearGradient4561">
      <stop
         id="stop22244"
         offset="0"
         stop-color="#fefefe" />
      <stop
         id="stop22246"
         offset="1"
         stop-color="#e9e9e9" />
    </linearGradient>
  </defs>
  <g
     id="g22434">
    <g
       id="g22271"
       opacity="0.1"
       transform="matrix(3.7796,0,0,3.7796,-0.02109433,3.4078e-7)">
      <rect
         style="fill:url(#linearGradient6191)"
         id="rect22251"
         opacity="1"
         fill="url(#linearGradient6191)"
         height="1.5875"
         width="10.583"
         y="15.346"
         x="3.1749001" />
      <path
         style="fill:url(#radialGradient6247)"
         id="path22253"
         opacity="1"
         fill="url(#radialGradient6247)"
         d="m 35,0 10e-7,7 7,-7 z"
         transform="scale(0.26458)" />
      <path
         style="fill:url(#linearGradient6263)"
         id="path22255"
         opacity="1"
         fill="url(#linearGradient6263)"
         d="m 42,0 -7,7 14,15 9,-9 2e-6,-9.4551 L 54.455102,0 Z"
         transform="scale(0.26458)" />
      <path
         style="fill:url(#radialGradient6255)"
         id="path22257"
         opacity="1"
         fill="url(#radialGradient6255)"
         d="m 58,13 -9,9 h 9 z"
         transform="scale(0.26458)" />
      <rect
         y="0"
         style="fill:url(#linearGradient6239)"
         id="rect22259"
         opacity="1"
         fill="url(#linearGradient6239)"
         height="1.0583"
         width="6.0853"
         x="3.1749001" />
      <rect
         y="0"
         style="fill:url(#radialGradient6231)"
         id="rect22261"
         opacity="1"
         fill="url(#radialGradient6231)"
         height="1.0583"
         width="1.5875"
         x="1.5875" />
      <rect
         style="fill:url(#linearGradient6215)"
         id="rect22263"
         opacity="1"
         fill="url(#linearGradient6215)"
         height="9.5248003"
         width="1.5875"
         y="5.8207002"
         x="13.758" />
      <rect
         style="fill:url(#linearGradient6223)"
         id="rect22265"
         opacity="1"
         fill="url(#linearGradient6223)"
         height="14.287"
         width="1.5875"
         y="1.0583"
         x="1.5875" />
      <rect
         style="fill:url(#radialGradient6207)"
         id="rect22267"
         opacity="1"
         fill="url(#radialGradient6207)"
         height="1.5875"
         width="1.5875"
         y="15.346"
         x="13.758" />
      <rect
         style="fill:url(#radialGradient6199)"
         id="rect22269"
         opacity="1"
         fill="url(#radialGradient6199)"
         height="1.5875"
         width="1.5875"
         y="15.346"
         x="1.5875" />
    </g>
    <g
       id="g22293"
       opacity="0.2"
       transform="matrix(3.7796,0,0,3.7796,-0.02109433,3.4078e-7)">
      <rect
         style="fill:url(#linearGradient6315)"
         id="rect22273"
         opacity="1"
         fill="url(#linearGradient6315)"
         height="1.5875"
         width="10.583"
         y="15.346"
         x="3.1749001" />
      <path
         style="fill:url(#radialGradient6331)"
         id="path22275"
         opacity="1"
         fill="url(#radialGradient6331)"
         d="m 35,0 10e-7,7 7,-7 z"
         transform="scale(0.26458)" />
      <path
         style="fill:url(#linearGradient6333)"
         id="path22277"
         opacity="1"
         fill="url(#linearGradient6333)"
         d="m 42,0 -7,7 14,15 9,-9 2e-6,-9.4551 L 54.455102,0 Z"
         transform="scale(0.26458)" />
      <path
         style="fill:url(#radialGradient6321)"
         id="path22279"
         opacity="1"
         fill="url(#radialGradient6321)"
         d="m 58,13 -9,9 h 9 z"
         transform="scale(0.26458)" />
      <rect
         y="0"
         style="fill:url(#linearGradient6335)"
         id="rect22281"
         opacity="1"
         fill="url(#linearGradient6335)"
         height="1.0583"
         width="6.0853"
         x="3.1749001" />
      <rect
         y="0"
         style="fill:url(#radialGradient6337)"
         id="rect22283"
         opacity="1"
         fill="url(#radialGradient6337)"
         ry="0"
         height="1.0583"
         width="1.5875"
         x="1.5875" />
      <rect
         style="fill:url(#linearGradient6319)"
         id="rect22285"
         opacity="1"
         fill="url(#linearGradient6319)"
         height="9.5248003"
         width="1.5875"
         y="5.8207002"
         x="13.758" />
      <rect
         style="fill:url(#linearGradient6309)"
         id="rect22287"
         opacity="1"
         fill="url(#linearGradient6309)"
         height="14.287"
         width="1.5875"
         y="1.0583"
         x="1.5875" />
      <rect
         style="fill:url(#radialGradient6317)"
         id="rect22289"
         opacity="1"
         fill="url(#radialGradient6317)"
         height="1.5875"
         width="1.5875"
         y="15.346"
         x="13.758" />
      <rect
         style="fill:url(#radialGradient6311)"
         id="rect22291"
         opacity="1"
         fill="url(#radialGradient6311)"
         height="1.5875"
         width="1.5875"
         y="15.346"
         x="1.5875" />
    </g>
    <path
       style="fill:url(#linearGradient4553)"
       id="path22295"
       stroke-width="1.00001"
       fill="url(#linearGradient4553)"
       d="m 10.979163,1.0000069 c -1.1080274,0 -2.000013,0.8920234 -2.000013,2.0000131 v 55.998554 c 0,1.108027 0.8920234,2.000013 2.000013,2.000013 h 41.998915 c 1.108028,0 2.000013,-0.892024 2.000013,-2.000013 V 19.996881 c 0,-1.000006 -0.609006,-2.60902 -2.000013,-3.99995 L 39.978144,2.9969964 C 38.640052,1.3037734 36.978124,0.99698323 35.978193,0.99698323 Z" />
    <path
       style="fill:url(#radialGradient6129);stroke-width:3.7796"
       id="path22297"
       opacity="0.05"
       fill="url(#radialGradient6129)"
       d="m 45.977503,15.999803 v 15.999803 h 8.999984 V 19.999754 c 0,-0.131818 -0.02608,-0.300565 -0.03908,-0.453137 -0.148728,-0.992976 -0.763442,-2.349399 -1.960932,-3.54689 z" />
    <rect
       id="rect22299"
       fill="none"
       height="25.076889"
       width="25.080669"
       y="-2.0489588"
       x="32.940151"
       style="stroke-width:3.7796" />
    <g
       id="g22331"
       transform="matrix(3.7796,0,0,3.7796,-0.19787,3.4078e-7)">
      <rect
         style="fill:url(#radialGradient6017)"
         id="rect22313"
         opacity="0.05"
         fill="url(#radialGradient6017)"
         ry="0"
         height="4.2333002"
         width="4.2333002"
         y="4.2333002"
         x="6.3965998" />
      <path
         style="fill:url(#radialGradient6042)"
         id="path22315"
         opacity="0.05"
         fill="url(#radialGradient6042)"
         d="m 6.3966,0.26458 v 2.3812 h 4.2332 v -1.852 C 10.27577,0.34579 9.83607,0.26462 9.5715,0.26462 Z" />
      <rect
         style="fill:url(#linearGradient6093)"
         id="rect22317"
         opacity="0.05"
         fill="url(#linearGradient6093)"
         ry="0"
         height="1.5875"
         width="4.2333002"
         y="2.6458001"
         x="6.3965998" />
      <rect
         style="fill:url(#linearGradient6073)"
         id="rect22319"
         opacity="0.2"
         fill="url(#linearGradient6073)"
         ry="0"
         height="1.5875"
         width="2.9103999"
         y="2.6458001"
         x="7.7195001" />
      <rect
         style="fill:url(#radialGradient6083)"
         id="rect22321"
         opacity="0.2"
         fill="url(#radialGradient6083)"
         ry="0"
         height="2.9103999"
         width="2.9103999"
         y="4.2333002"
         x="7.7195001" />
      <path
         style="fill:url(#radialGradient6089)"
         id="path22323"
         opacity="0.2"
         fill="url(#radialGradient6089)"
         d="m 7.7195,0.26458 v 2.3812 h 2.9104 v -1.852 C 10.48974,0.61642 10.33632,0.4982 10.18549,0.4181 L 9.57159,0.26462 Z" />
      <rect
         style="fill:url(#linearGradient6121)"
         id="rect22325"
         opacity="0.05"
         fill="url(#linearGradient6121)"
         ry="0"
         height="1.5875"
         width="4.2333002"
         y="10.63"
         x="-8.4665003"
         transform="rotate(-90)" />
      <rect
         style="fill:url(#linearGradient6123)"
         id="rect22327"
         opacity="0.2"
         fill="url(#linearGradient6123)"
         ry="0"
         height="1.5875"
         width="2.9103999"
         y="10.63"
         x="-7.1436"
         transform="rotate(-90)" />
      <path
         style="fill:url(#radialGradient6131)"
         id="path22329"
         opacity="0.2"
         fill="url(#radialGradient6131)"
         d="m 12.217,4.2332 v 2.9104 h 2.3812 V 5.2916 L 14.48193,4.826 C 14.396083,4.63334 14.26143,4.42567 14.06904,4.23328 Z" />
    </g>
    <path
       style="fill:url(#linearGradient4561);stroke-width:3.7796"
       id="path22333"
       fill="url(#linearGradient4561)"
       d="M 37.97987,1.4189378 V 15.993453 c 0,1.10799 0.892023,2.000051 2.000051,2.000051 H 54.425552 C 54.099486,17.33472 53.627943,16.641201 52.980233,15.993453 L 39.979921,2.9931412 C 39.350353,2.1964771 38.650144,1.7141623 37.97987,1.4188622 Z" />
  </g>
  <path
     id="path22337"
     style="isolation:auto;mix-blend-mode:normal"
     stroke-width="0.85714"
     solid-color="#000000"
     overflow="visible"
     fill="#919caf"
     color="#000000"
     d="m 27.03541,39.38346 c 2.4386,-2.5389 4.6671,-5.178 4.9517,-5.8654 0.28457,-0.68657 1.4057,-2.0443 2.4934,-3.0154 2.8457,-2.5423 4.5051,-2.3426 5.9331,0.71314 0.36429,0.77914 0.86571,1.416 1.1143,1.416 0.56743,0 3.186,-2.5491 3.186,-3.1029 0,-0.71571 -1.344,-1.95 -2.1231,-1.95 -0.82286,0 -1.6097,-1.1803 -1.6097,-2.4129 0,-0.93429 -2.5714,-3.5349 -4.4374,-4.488 C 35.654,20.22371 34.12231,20 31.90231,20 c -3.3574,0 -4.7606,0.55629 -2.6117,1.0354 0.64543,0.144 1.86,0.83571 2.7,1.5386 2.16,1.8086 2.0734,3.1671 -0.39171,6.096 -1.0543,1.2523 -2.1746,2.2774 -2.4909,2.2774 C 28.40943,30.9474 19,39.6963 19,40.3451 19,40.83539 21.8886,44 22.3369,44 c 0.14571,0 2.2603,-2.0769 4.6989,-4.6166 z" />
  <g
     transform="translate(-2.54902,0.001901)"
     id="g22396">
    <path
       style="fill:#7b7b7b;stroke-width:0.205761"
       d="m 24.04902,50.000329 h 1.209661 l 1.531154,4.083102 1.539166,-4.083102 h 1.209661 v 6.000115 h -0.791713 v -5.268763 l -1.547217,4.115229 h -0.815789 l -1.547217,-4.115229 v 5.268763 h -0.787668 z"
       id="path22303" />
    <path
       style="fill:#7b7b7b;stroke-width:0.205761"
       d="m 33.15521,50.797824 -1.101148,2.985922 h 2.206303 z m -0.458125,-0.799725 h 0.920295 l 2.286658,6.000115 h -0.843947 l -0.546568,-1.539167 h -2.704606 l -0.546568,1.539167 h -0.856004 z"
       id="path22305" />
    <path
       style="fill:#7b7b7b;stroke-width:0.205761"
       d="m 36.780225,50.000329 h 0.811782 v 2.535847 l 2.692549,-2.535847 h 1.044871 l -2.977909,2.797055 3.190889,3.202946 h -1.068984 l -2.881454,-2.889504 v 2.889504 h -0.811782 z"
       id="path22307" />
    <path
       style="fill:#7b7b7b;stroke-width:0.205761"
       d="m 42.179005,50.000329 h 3.793585 v 0.6832 h -2.981916 v 1.776299 h 2.85734 v 0.6832 h -2.85734 v 2.17414 h 3.054257 v 0.6832 h -3.866153 z"
       id="path22309" />
  </g>
</svg>
