<?xml version="1.0" encoding="UTF-8" standalone="no"?>
<svg
   xmlns:dc="http://purl.org/dc/elements/1.1/"
   xmlns:cc="http://creativecommons.org/ns#"
   xmlns:rdf="http://www.w3.org/1999/02/22-rdf-syntax-ns#"
   xmlns:svg="http://www.w3.org/2000/svg"
   xmlns="http://www.w3.org/2000/svg"
   xmlns:xlink="http://www.w3.org/1999/xlink"
   xmlns:sodipodi="http://sodipodi.sourceforge.net/DTD/sodipodi-0.dtd"
   xmlns:inkscape="http://www.inkscape.org/namespaces/inkscape"
   width="64"
   height="64"
   version="1.1"
   viewBox="0 0 16.933 16.933"
   id="svg4304"
   sodipodi:docname="text-x-arduino.svg"
   inkscape:version="1.0 (1.0+r73+1)">
  <metadata
     id="metadata4308">
    <rdf:RDF>
      <cc:Work
         rdf:about="">
        <dc:format>image/svg+xml</dc:format>
        <dc:type
           rdf:resource="http://purl.org/dc/dcmitype/StillImage" />
        <dc:title></dc:title>
        <dc:creator>
          <cc:Agent>
            <dc:title>Mohammad Mahdi Baghbani Pourvahid</dc:title>
          </cc:Agent>
        </dc:creator>
        <dc:publisher>
          <cc:Agent>
            <dc:title>Azadeh Afzar</dc:title>
          </cc:Agent>
        </dc:publisher>
      </cc:Work>
    </rdf:RDF>
  </metadata>
  <sodipodi:namedview
     inkscape:document-rotation="0"
     pagecolor="#ffffff"
     bordercolor="#666666"
     borderopacity="1"
     objecttolerance="10"
     gridtolerance="10"
     guidetolerance="10"
     inkscape:pageopacity="0"
     inkscape:pageshadow="2"
     inkscape:window-width="1366"
     inkscape:window-height="708"
     id="namedview4306"
     showgrid="false"
     inkscape:zoom="2.9002427"
     inkscape:cx="-14.791207"
     inkscape:cy="28.333367"
     inkscape:window-x="0"
     inkscape:window-y="28"
     inkscape:window-maximized="1"
     inkscape:current-layer="svg4304" />
  <defs
     id="defs4222">
    <linearGradient
       id="b"
       x1="-666.12"
       x2="-553.27"
       y1="413.04"
       y2="525.91"
       gradientTransform="matrix(.99884 0 0 .9987 689.01 -388.84)"
       gradientUnits="userSpaceOnUse"
       xlink:href="#a" />
    <linearGradient
       id="a">
      <stop
         stop-color="#3b3b3b"
         offset="0"
         id="stop4171" />
      <stop
         stop-color="#fff"
         offset="1"
         id="stop4173" />
    </linearGradient>
    <linearGradient
       id="c"
       x1="-553.27"
       x2="-666.12"
       y1="525.91"
       y2="413.05"
       gradientTransform="matrix(.99884 0 0 .9987 689.01 -388.84)"
       gradientUnits="userSpaceOnUse"
       xlink:href="#a" />
    <linearGradient
       id="linearGradient6191"
       x1="7.9373"
       x2="7.9373"
       y1="15.346"
       y2="16.933"
       gradientUnits="userSpaceOnUse"
       xlink:href="#linearGradient6067" />
    <linearGradient
       id="linearGradient6067">
      <stop
         offset="0"
         id="stop4178" />
      <stop
         stop-opacity="0"
         offset="1"
         id="stop4180" />
    </linearGradient>
    <radialGradient
       id="radialGradient6247"
       cx="35"
       cy="4"
       r="3.7275"
       gradientTransform="matrix(1.696,0,0,1.0731,-24.361,-0.29238)"
       gradientUnits="userSpaceOnUse"
       xlink:href="#linearGradient6067" />
    <linearGradient
       id="linearGradient6263"
       x1="43"
       x2="46.748"
       y1="12"
       y2="8.2517"
       gradientUnits="userSpaceOnUse"
       xlink:href="#linearGradient6067" />
    <radialGradient
       id="radialGradient6255"
       cx="52"
       cy="22"
       r="5.2061"
       gradientTransform="matrix(0.96042,0,0,1.3331,2.0581,-7.3283)"
       gradientUnits="userSpaceOnUse"
       xlink:href="#linearGradient6067" />
    <linearGradient
       id="linearGradient6239"
       x1="5.8207"
       x2="5.8207"
       y1="1.0583"
       gradientUnits="userSpaceOnUse"
       xlink:href="#linearGradient6067" />
    <radialGradient
       id="radialGradient6231"
       cx="3.1749"
       cy="1.3229"
       r=".79373"
       gradientTransform="matrix(-2.1078e-8,-1.3333,1.6667,-2.6348e-8,0.97012,5.2916)"
       gradientUnits="userSpaceOnUse"
       xlink:href="#linearGradient6067" />
    <linearGradient
       id="linearGradient6215"
       x1="13.758"
       x2="15.081"
       y1="10.583"
       y2="10.583"
       gradientUnits="userSpaceOnUse"
       xlink:href="#linearGradient6067" />
    <linearGradient
       id="linearGradient6223"
       x1="3.1749"
       x2="1.852"
       y1="8.4665"
       y2="8.4665"
       gradientUnits="userSpaceOnUse"
       xlink:href="#linearGradient6067" />
    <radialGradient
       id="radialGradient6207"
       cx="13.758"
       cy="15.346"
       r=".79373"
       gradientTransform="matrix(5.1718e-7,2,-1.6667,4.3098e-7,39.334,-12.171)"
       gradientUnits="userSpaceOnUse"
       xlink:href="#linearGradient6067" />
    <radialGradient
       id="radialGradient6199"
       cx="3.1749"
       cy="15.346"
       r=".79373"
       gradientTransform="matrix(-1.6667,-1.37e-6,1.644e-6,-2,8.4665,46.037)"
       gradientUnits="userSpaceOnUse"
       xlink:href="#linearGradient6067" />
    <linearGradient
       id="linearGradient6315"
       x1="7.9373"
       x2="7.9373"
       y1="15.346"
       y2="16.668"
       gradientUnits="userSpaceOnUse"
       xlink:href="#linearGradient6067" />
    <radialGradient
       id="radialGradient6331"
       cx="35"
       cy="4"
       r="3.7275"
       gradientTransform="matrix(1.6115,-1.9122e-7,9.5496e-8,0.80482,-21.403,0.78072)"
       gradientUnits="userSpaceOnUse"
       xlink:href="#linearGradient6067" />
    <linearGradient
       id="linearGradient6333"
       x1="43"
       x2="46.004"
       y1="12"
       y2="8.9965"
       gradientUnits="userSpaceOnUse"
       xlink:href="#linearGradient6067" />
    <radialGradient
       id="radialGradient6321"
       cx="52"
       cy="22"
       r="5.2061"
       gradientTransform="matrix(0.76834,-9.6042e-8,1.534e-7,1.2272,12.047,-4.9986)"
       gradientUnits="userSpaceOnUse"
       xlink:href="#linearGradient6067" />
    <linearGradient
       id="linearGradient6335"
       x1="5.8207"
       x2="5.8207"
       y1="1.0583"
       y2=".26458"
       gradientUnits="userSpaceOnUse"
       xlink:href="#linearGradient6067" />
    <radialGradient
       id="radialGradient6337"
       cx="3.1749"
       cy="1.3229"
       r=".79373"
       gradientTransform="matrix(-7.442e-8,-1,1.3333,-9.9226e-8,1.4111,4.2333)"
       gradientUnits="userSpaceOnUse"
       xlink:href="#linearGradient6067" />
    <linearGradient
       id="linearGradient6319"
       x1="13.758"
       x2="14.816"
       y1="10.583"
       y2="10.583"
       gradientUnits="userSpaceOnUse"
       xlink:href="#linearGradient6067" />
    <linearGradient
       id="linearGradient6309"
       x1="3.1749"
       x2="2.1166"
       y1="8.4665"
       y2="8.4665"
       gradientUnits="userSpaceOnUse"
       xlink:href="#linearGradient6067" />
    <radialGradient
       id="radialGradient6317"
       cx="13.758"
       cy="15.346"
       r=".79373"
       gradientTransform="matrix(0,1.6667,-1.3333,0,34.219,-7.5846)"
       gradientUnits="userSpaceOnUse"
       xlink:href="#linearGradient6067" />
    <radialGradient
       id="radialGradient6311"
       cx="3.1749"
       cy="15.346"
       r=".79373"
       gradientTransform="matrix(-1.3333,0,0,-1.6667,7.4082,40.921)"
       gradientUnits="userSpaceOnUse"
       xlink:href="#linearGradient6067" />
    <linearGradient
       id="linearGradient4553"
       x1="45"
       x2="11"
       y1="9"
       y2="60"
       gradientTransform="matrix(0.26458,0,0,0.26458,-0.00558,-0.26458)"
       gradientUnits="userSpaceOnUse">
      <stop
         stop-color="#ededed"
         offset="0"
         id="stop4202" />
      <stop
         stop-color="#fcfcfc"
         offset="1"
         id="stop4204" />
    </linearGradient>
    <radialGradient
       id="radialGradient6129"
       cx="40"
       cy="12"
       r="8"
       gradientTransform="matrix(0.39687,0,0,-0.52916,-3.709651,10.583)"
       gradientUnits="userSpaceOnUse"
       xlink:href="#linearGradient6067" />
    <radialGradient
       id="radialGradient6017"
       cx="10.583"
       cy="4.2333"
       r="2.1166"
       gradientTransform="matrix(-2,3.1236e-7,-3.1236e-7,-2,31.796,12.7)"
       gradientUnits="userSpaceOnUse"
       xlink:href="#linearGradient6067" />
    <radialGradient
       id="radialGradient6042"
       cx="40"
       cy="12"
       r="8"
       gradientTransform="matrix(0,-0.39687,0.52916,0,4.28,18.52)"
       gradientUnits="userSpaceOnUse"
       xlink:href="#linearGradient6067" />
    <linearGradient
       id="linearGradient6093"
       x1="10.583"
       x2="6.3499"
       y1="3.1749"
       y2="3.1749"
       gradientTransform="matrix(1,0,0,0.66667,0.046771,1.4111)"
       gradientUnits="userSpaceOnUse"
       xlink:href="#linearGradient6067" />
    <linearGradient
       id="linearGradient6073"
       x1="10.583"
       x2="8.7311"
       y1="3.0426"
       y2="3.0426"
       gradientTransform="matrix(1,0,0,0.66667,0.046771,1.4111)"
       gradientUnits="userSpaceOnUse"
       xlink:href="#linearGradient6067" />
    <radialGradient
       id="radialGradient6083"
       cx="10.583"
       cy="4.2333"
       r="2.1166"
       gradientTransform="matrix(-0.875,-1.6564e-7,1.6631e-7,-0.87849,19.89,7.9521)"
       gradientUnits="userSpaceOnUse"
       xlink:href="#linearGradient6067" />
    <radialGradient
       id="radialGradient6089"
       cx="40"
       cy="12"
       r="8"
       gradientTransform="matrix(0,-0.34601,0.23278,0,7.8365,16.486)"
       gradientUnits="userSpaceOnUse"
       xlink:href="#linearGradient6067" />
    <linearGradient
       id="linearGradient6121"
       x1="10.583"
       x2="6.3499"
       y1="3.1749"
       y2="3.1749"
       gradientTransform="matrix(1,0,0,0.66667,-14.816,9.3952)"
       gradientUnits="userSpaceOnUse"
       xlink:href="#linearGradient6067" />
    <linearGradient
       id="linearGradient6123"
       x1="10.583"
       x2="8.7237"
       y1="3.0426"
       y2="3.0426"
       gradientTransform="matrix(1,0,0,0.66667,-14.816,9.3952)"
       gradientUnits="userSpaceOnUse"
       xlink:href="#linearGradient6067" />
    <radialGradient
       id="radialGradient6131"
       cx="40"
       cy="12"
       r="8"
       gradientTransform="matrix(0.3793,0,0,-0.23243,-2.9547,7.0224)"
       gradientUnits="userSpaceOnUse"
       xlink:href="#linearGradient6067" />
    <linearGradient
       id="linearGradient4561"
       x1="40"
       x2="46"
       y1="17"
       y2="11"
       gradientTransform="matrix(0.26458,0,0,0.26458,-0.00558,-0.26458)"
       gradientUnits="userSpaceOnUse">
      <stop
         stop-color="#fefefe"
         offset="0"
         id="stop4217" />
      <stop
         stop-color="#e9e9e9"
         offset="1"
         id="stop4219" />
    </linearGradient>
  </defs>
  <g
     id="g20069">
    <g
       transform="translate(-0.00558)"
       opacity="0.1"
       id="g4244">
      <rect
         style="fill:url(#linearGradient6191)"
         x="3.1749001"
         y="15.346"
         width="10.583"
         height="1.5875"
         fill="url(#linearGradient6191)"
         opacity="1"
         id="rect4224" />
      <path
         style="fill:url(#radialGradient6247)"
         transform="scale(0.26458)"
         d="m 35,0 10e-7,7 7,-7 z"
         fill="url(#radialGradient6247)"
         opacity="1"
         id="path4226" />
      <path
         style="fill:url(#linearGradient6263)"
         transform="scale(0.26458)"
         d="m 42,0 -7,7 14,15 9,-9 2e-6,-9.4551 L 54.455102,0 Z"
         fill="url(#linearGradient6263)"
         opacity="1"
         id="path4228" />
      <path
         style="fill:url(#radialGradient6255)"
         transform="scale(0.26458)"
         d="m 58,13 -9,9 h 9 z"
         fill="url(#radialGradient6255)"
         opacity="1"
         id="path4230" />
      <rect
         y="0"
         style="fill:url(#linearGradient6239)"
         x="3.1749001"
         width="6.0853"
         height="1.0583"
         fill="url(#linearGradient6239)"
         opacity="1"
         id="rect4232" />
      <rect
         y="0"
         style="fill:url(#radialGradient6231)"
         x="1.5875"
         width="1.5875"
         height="1.0583"
         fill="url(#radialGradient6231)"
         opacity="1"
         id="rect4234" />
      <rect
         style="fill:url(#linearGradient6215)"
         x="13.758"
         y="5.8207002"
         width="1.5875"
         height="9.5248003"
         fill="url(#linearGradient6215)"
         opacity="1"
         id="rect4236" />
      <rect
         style="fill:url(#linearGradient6223)"
         x="1.5875"
         y="1.0583"
         width="1.5875"
         height="14.287"
         fill="url(#linearGradient6223)"
         opacity="1"
         id="rect4238" />
      <rect
         style="fill:url(#radialGradient6207)"
         x="13.758"
         y="15.346"
         width="1.5875"
         height="1.5875"
         fill="url(#radialGradient6207)"
         opacity="1"
         id="rect4240" />
      <rect
         style="fill:url(#radialGradient6199)"
         x="1.5875"
         y="15.346"
         width="1.5875"
         height="1.5875"
         fill="url(#radialGradient6199)"
         opacity="1"
         id="rect4242" />
    </g>
    <g
       transform="translate(-0.00558)"
       opacity="0.2"
       id="g4266">
      <rect
         style="fill:url(#linearGradient6315)"
         x="3.1749001"
         y="15.346"
         width="10.583"
         height="1.5875"
         fill="url(#linearGradient6315)"
         opacity="1"
         id="rect4246" />
      <path
         style="fill:url(#radialGradient6331)"
         transform="scale(0.26458)"
         d="m 35,0 10e-7,7 7,-7 z"
         fill="url(#radialGradient6331)"
         opacity="1"
         id="path4248" />
      <path
         style="fill:url(#linearGradient6333)"
         transform="scale(0.26458)"
         d="m 42,0 -7,7 14,15 9,-9 2e-6,-9.4551 L 54.455102,0 Z"
         fill="url(#linearGradient6333)"
         opacity="1"
         id="path4250" />
      <path
         style="fill:url(#radialGradient6321)"
         transform="scale(0.26458)"
         d="m 58,13 -9,9 h 9 z"
         fill="url(#radialGradient6321)"
         opacity="1"
         id="path4252" />
      <rect
         y="0"
         style="fill:url(#linearGradient6335)"
         x="3.1749001"
         width="6.0853"
         height="1.0583"
         fill="url(#linearGradient6335)"
         opacity="1"
         id="rect4254" />
      <rect
         y="0"
         style="fill:url(#radialGradient6337)"
         x="1.5875"
         width="1.5875"
         height="1.0583"
         ry="0"
         fill="url(#radialGradient6337)"
         opacity="1"
         id="rect4256" />
      <rect
         style="fill:url(#linearGradient6319)"
         x="13.758"
         y="5.8207002"
         width="1.5875"
         height="9.5248003"
         fill="url(#linearGradient6319)"
         opacity="1"
         id="rect4258" />
      <rect
         style="fill:url(#linearGradient6309)"
         x="1.5875"
         y="1.0583"
         width="1.5875"
         height="14.287"
         fill="url(#linearGradient6309)"
         opacity="1"
         id="rect4260" />
      <rect
         style="fill:url(#radialGradient6317)"
         x="13.758"
         y="15.346"
         width="1.5875"
         height="1.5875"
         fill="url(#radialGradient6317)"
         opacity="1"
         id="rect4262" />
      <rect
         style="fill:url(#radialGradient6311)"
         x="1.5875"
         y="15.346"
         width="1.5875"
         height="1.5875"
         fill="url(#radialGradient6311)"
         opacity="1"
         id="rect4264" />
    </g>
    <path
       style="fill:#1fa8ad;fill-opacity:1"
       d="m 2.904849,0.26458 c -0.29316,0 -0.52916,0.23601 -0.52916,0.52916 v 14.816 c 0,0.29316 0.23601,0.52916 0.52916,0.52916 h 11.112 c 0.29316,0 0.52916,-0.23601 0.52916,-0.52916 v -10.319 c 0,-0.26458 -0.16113,-0.69029 -0.52916,-1.0583 l -3.4395,-3.4395 C 10.223319,0.34495 9.783609,0.26378 9.519049,0.26378 Z"
       fill="url(#linearGradient4553)"
       stroke-width="0.26458"
       id="path4268" />
    <path
       style="fill:url(#radialGradient6129)"
       d="m 12.164649,4.2332 v 4.2332 h 2.3812 V 5.2915 c 0,-0.034876 -0.0069,-0.079523 -0.01034,-0.11989 -0.03935,-0.26272 -0.20199,-0.6216 -0.51882,-0.93843 z"
       fill="url(#radialGradient6129)"
       opacity="0.05"
       id="path4270" />
    <rect
       x="8.7152491"
       y="-0.54211003"
       width="6.6357999"
       height="6.6348"
       fill="none"
       id="rect4272" />
    <g
       id="g4292"
       transform="translate(-0.052351)">
      <rect
         style="fill:url(#radialGradient6017)"
         x="6.3965998"
         y="4.2333002"
         width="4.2333002"
         height="4.2333002"
         ry="0"
         fill="url(#radialGradient6017)"
         opacity="0.05"
         id="rect4274" />
      <path
         style="fill:url(#radialGradient6042)"
         d="m 6.3966,0.26458 v 2.3812 h 4.2332 v -1.852 C 10.27577,0.34579 9.83607,0.26462 9.5715,0.26462 Z"
         fill="url(#radialGradient6042)"
         opacity="0.05"
         id="path4276" />
      <rect
         style="fill:url(#linearGradient6093)"
         x="6.3965998"
         y="2.6458001"
         width="4.2333002"
         height="1.5875"
         ry="0"
         fill="url(#linearGradient6093)"
         opacity="0.05"
         id="rect4278" />
      <rect
         style="fill:url(#linearGradient6073)"
         x="7.7195001"
         y="2.6458001"
         width="2.9103999"
         height="1.5875"
         ry="0"
         fill="url(#linearGradient6073)"
         opacity="0.2"
         id="rect4280" />
      <rect
         style="fill:url(#radialGradient6083)"
         x="7.7195001"
         y="4.2333002"
         width="2.9103999"
         height="2.9103999"
         ry="0"
         fill="url(#radialGradient6083)"
         opacity="0.2"
         id="rect4282" />
      <path
         style="fill:url(#radialGradient6089)"
         d="m 7.7195,0.26458 v 2.3812 h 2.9104 v -1.852 C 10.48974,0.61642 10.33632,0.4982 10.18549,0.4181 L 9.57159,0.26462 Z"
         fill="url(#radialGradient6089)"
         opacity="0.2"
         id="path4284" />
      <rect
         style="fill:url(#linearGradient6121)"
         transform="rotate(-90)"
         x="-8.4665003"
         y="10.63"
         width="4.2333002"
         height="1.5875"
         ry="0"
         fill="url(#linearGradient6121)"
         opacity="0.05"
         id="rect4286" />
      <rect
         style="fill:url(#linearGradient6123)"
         transform="rotate(-90)"
         x="-7.1436"
         y="10.63"
         width="2.9103999"
         height="1.5875"
         ry="0"
         fill="url(#linearGradient6123)"
         opacity="0.2"
         id="rect4288" />
      <path
         style="fill:url(#radialGradient6131)"
         d="m 12.217,4.2332 v 2.9104 h 2.3812 V 5.2916 L 14.48193,4.826 C 14.396083,4.63334 14.26143,4.42567 14.06904,4.23328 Z"
         fill="url(#radialGradient6131)"
         opacity="0.2"
         id="path4290" />
    </g>
    <path
       style="fill:url(#linearGradient4561)"
       d="m 10.048649,0.37542 v 3.8561 c 0,0.29315 0.23601,0.52917 0.52917,0.52917 h 3.822 c -0.08627,-0.1743 -0.21103,-0.35779 -0.3824,-0.52917 l -3.4396,-3.4396 C 10.411249,0.58114 10.225989,0.45353 10.048649,0.3754 Z"
       fill="url(#linearGradient4561)"
       id="path4294" />
  </g>
  <g
     transform="matrix(0.10696792,0,0,0.10696792,-8.7186473,-5.2427012)"
     style="display:inline;enable-background:new"
     id="g19402">
    <path
       id="path8-6"
       style="opacity:0.7;fill:#ffffff;stroke-width:8.65702"
       d="m 203.94212,132.49031 c 0,-11.91206 -9.60929,-21.64255 -21.27896,-21.64255 v 0 c -1.09078,0 -2.19022,0.12986 -3.28101,0.25971 v 0 c -9.11584,1.41109 -15.20172,8.32805 -18.72513,13.57421 v 0 c -3.40221,-5.25481 -9.60929,-12.29297 -18.72513,-13.57421 v 0 c -1.09079,-0.12985 -2.19023,-0.25971 -3.28101,-0.25971 v 0 c -11.79087,0 -21.27896,9.73049 -21.27896,21.64255 v 0 c 0,11.91206 9.60929,21.64255 21.27896,21.64255 v 0 c 1.09078,0 2.19022,-0.12986 3.28101,-0.25971 v 0 c 9.11584,-1.41109 15.20172,-8.32805 18.72513,-13.57421 v 0 c 3.40221,5.37601 9.48809,12.29297 18.72513,13.57421 v 0 c 1.09079,0.12985 2.19023,0.25971 3.28101,0.25971 v 0 c 11.66967,0 21.27896,-9.60064 21.27896,-21.64255 z m -62.97982,13.83392 c -0.72719,0.12985 -1.46304,0.12985 -2.31142,0.12985 v 0 c -7.78267,0 -13.98109,-6.27634 -13.98109,-13.95511 v 0 c 0,-7.68744 6.31962,-13.95512 13.98109,-13.95512 v 0 c 0.72718,0 1.46303,0.12986 2.31142,0.12986 v 0 c 8.63105,1.28124 13.85989,10.24125 15.68652,13.83391 v 0 c -1.82663,3.58401 -7.05547,12.55268 -15.68652,13.83392 v 0 z m 23.71158,-13.83392 c 1.82663,-3.58401 7.05547,-12.55268 15.68652,-13.83392 v 0 c 0.72719,-0.12985 1.46303,-0.12985 2.31142,-0.12985 v 0 c 7.78266,0 13.98109,6.27634 13.98109,13.95511 v 0 c 0,7.68744 -6.31963,13.95512 -13.98109,13.95512 v 0 c -0.72719,0 -1.46303,0 -2.31142,-0.12986 v 0 c -8.63105,-1.28124 -13.85989,-10.24125 -15.68652,-13.83391 v 0 z"
       inkscape:connector-curvature="0" />
    <path
       id="path10"
       style="fill:#ffffff;stroke-width:7.67844"
       d="m 127.49108,128.8907 v 0 7.21677 H 152 v 0 -7.21677 0 z"
       inkscape:connector-curvature="0" />
    <path
       id="path12"
       style="fill:#ffffff;stroke-width:7.53754"
       d="m 170.76299,128.89589 v 7.38708 l 0.007,-0.17841 7.91572,0.007 c -0.0121,2.02269 -0.003,4.84457 0.004,7.20781 2.44115,0.0121 4.71814,0.0276 7.22101,-0.006 l -0.005,-7.21627 7.92991,-9e-5 v -7.2011 l -7.92233,0.007 -0.007,-7.23512 -7.20206,0.007 -0.007,7.22851 z"
       inkscape:connector-curvature="0"
       sodipodi:nodetypes="cccccccccccccc" />
  </g>
</svg>
